<?xml version="1.0" encoding="utf-8" standalone="no"?>
<!DOCTYPE svg PUBLIC "-//W3C//DTD SVG 1.1//EN"
  "http://www.w3.org/Graphics/SVG/1.1/DTD/svg11.dtd">
<svg xmlns:xlink="http://www.w3.org/1999/xlink" width="864pt" height="360pt" viewBox="0 0 864 360" xmlns="http://www.w3.org/2000/svg" version="1.1">
 <metadata>
  <rdf:RDF xmlns:dc="http://purl.org/dc/elements/1.1/" xmlns:cc="http://creativecommons.org/ns#" xmlns:rdf="http://www.w3.org/1999/02/22-rdf-syntax-ns#">
   <cc:Work>
    <dc:type rdf:resource="http://purl.org/dc/dcmitype/StillImage"/>
    <dc:date>2024-04-29T20:04:53.389084</dc:date>
    <dc:format>image/svg+xml</dc:format>
    <dc:creator>
     <cc:Agent>
      <dc:title>Matplotlib v3.8.4, https://matplotlib.org/</dc:title>
     </cc:Agent>
    </dc:creator>
   </cc:Work>
  </rdf:RDF>
 </metadata>
 <defs>
  <style type="text/css">*{stroke-linejoin: round; stroke-linecap: butt}</style>
 </defs>
 <g id="figure_1">
  <g id="patch_1">
   <path d="M 0 360 
L 864 360 
L 864 0 
L 0 0 
L 0 360 
z
" style="fill: none; opacity: 0"/>
  </g>
  <g id="axes_1">
   <g id="patch_2">
    <path d="M 108 320.4 
L 777.6 320.4 
L 777.6 43.2 
L 108 43.2 
L 108 320.4 
z
" style="fill: none; opacity: 0"/>
   </g>
   <g id="matplotlib.axis_1">
    <g id="xtick_1">
     <g id="line2d_1">
      <path d="M 161.941674 320.4 
L 161.941674 43.2 
" clip-path="url(#p016b9f3059)" style="fill: none; stroke-dasharray: 5.12,1.28,0.8,1.28; stroke-dashoffset: 0; stroke: #b0b0b0; stroke-width: 0.8"/>
     </g>
     <g id="line2d_2">
      <defs>
       <path id="mf9dd118b02" d="M 0 0 
L 0 3.5 
" style="stroke: #a9a9a9; stroke-width: 0.8"/>
      </defs>
      <g>
       <use xlink:href="#mf9dd118b02" x="161.941674" y="320.4" style="fill: #a9a9a9; stroke: #a9a9a9; stroke-width: 0.8"/>
      </g>
     </g>
     <g id="text_1">
      <!-- 2021-09 -->
      <g style="fill: #a9a9a9" transform="translate(141.050268 334.998438) scale(0.1 -0.1)">
       <defs>
        <path id="DejaVuSans-32" d="M 1228 531 
L 3431 531 
L 3431 0 
L 469 0 
L 469 531 
Q 828 903 1448 1529 
Q 2069 2156 2228 2338 
Q 2531 2678 2651 2914 
Q 2772 3150 2772 3378 
Q 2772 3750 2511 3984 
Q 2250 4219 1831 4219 
Q 1534 4219 1204 4116 
Q 875 4013 500 3803 
L 500 4441 
Q 881 4594 1212 4672 
Q 1544 4750 1819 4750 
Q 2544 4750 2975 4387 
Q 3406 4025 3406 3419 
Q 3406 3131 3298 2873 
Q 3191 2616 2906 2266 
Q 2828 2175 2409 1742 
Q 1991 1309 1228 531 
z
" transform="scale(0.015625)"/>
        <path id="DejaVuSans-30" d="M 2034 4250 
Q 1547 4250 1301 3770 
Q 1056 3291 1056 2328 
Q 1056 1369 1301 889 
Q 1547 409 2034 409 
Q 2525 409 2770 889 
Q 3016 1369 3016 2328 
Q 3016 3291 2770 3770 
Q 2525 4250 2034 4250 
z
M 2034 4750 
Q 2819 4750 3233 4129 
Q 3647 3509 3647 2328 
Q 3647 1150 3233 529 
Q 2819 -91 2034 -91 
Q 1250 -91 836 529 
Q 422 1150 422 2328 
Q 422 3509 836 4129 
Q 1250 4750 2034 4750 
z
" transform="scale(0.015625)"/>
        <path id="DejaVuSans-31" d="M 794 531 
L 1825 531 
L 1825 4091 
L 703 3866 
L 703 4441 
L 1819 4666 
L 2450 4666 
L 2450 531 
L 3481 531 
L 3481 0 
L 794 0 
L 794 531 
z
" transform="scale(0.015625)"/>
        <path id="DejaVuSans-2d" d="M 313 2009 
L 1997 2009 
L 1997 1497 
L 313 1497 
L 313 2009 
z
" transform="scale(0.015625)"/>
        <path id="DejaVuSans-39" d="M 703 97 
L 703 672 
Q 941 559 1184 500 
Q 1428 441 1663 441 
Q 2288 441 2617 861 
Q 2947 1281 2994 2138 
Q 2813 1869 2534 1725 
Q 2256 1581 1919 1581 
Q 1219 1581 811 2004 
Q 403 2428 403 3163 
Q 403 3881 828 4315 
Q 1253 4750 1959 4750 
Q 2769 4750 3195 4129 
Q 3622 3509 3622 2328 
Q 3622 1225 3098 567 
Q 2575 -91 1691 -91 
Q 1453 -91 1209 -44 
Q 966 3 703 97 
z
M 1959 2075 
Q 2384 2075 2632 2365 
Q 2881 2656 2881 3163 
Q 2881 3666 2632 3958 
Q 2384 4250 1959 4250 
Q 1534 4250 1286 3958 
Q 1038 3666 1038 3163 
Q 1038 2656 1286 2365 
Q 1534 2075 1959 2075 
z
" transform="scale(0.015625)"/>
       </defs>
       <use xlink:href="#DejaVuSans-32"/>
       <use xlink:href="#DejaVuSans-30" x="63.623047"/>
       <use xlink:href="#DejaVuSans-32" x="127.246094"/>
       <use xlink:href="#DejaVuSans-31" x="190.869141"/>
       <use xlink:href="#DejaVuSans-2d" x="254.492188"/>
       <use xlink:href="#DejaVuSans-30" x="290.576172"/>
       <use xlink:href="#DejaVuSans-39" x="354.199219"/>
      </g>
     </g>
    </g>
    <g id="xtick_2">
     <g id="line2d_3">
      <path d="M 235.471107 320.4 
L 235.471107 43.2 
" clip-path="url(#p016b9f3059)" style="fill: none; stroke-dasharray: 5.12,1.28,0.8,1.28; stroke-dashoffset: 0; stroke: #b0b0b0; stroke-width: 0.8"/>
     </g>
     <g id="line2d_4">
      <g>
       <use xlink:href="#mf9dd118b02" x="235.471107" y="320.4" style="fill: #a9a9a9; stroke: #a9a9a9; stroke-width: 0.8"/>
      </g>
     </g>
     <g id="text_2">
      <!-- 2022-01 -->
      <g style="fill: #a9a9a9" transform="translate(214.579701 334.998438) scale(0.1 -0.1)">
       <use xlink:href="#DejaVuSans-32"/>
       <use xlink:href="#DejaVuSans-30" x="63.623047"/>
       <use xlink:href="#DejaVuSans-32" x="127.246094"/>
       <use xlink:href="#DejaVuSans-32" x="190.869141"/>
       <use xlink:href="#DejaVuSans-2d" x="254.492188"/>
       <use xlink:href="#DejaVuSans-30" x="290.576172"/>
       <use xlink:href="#DejaVuSans-31" x="354.199219"/>
      </g>
     </g>
    </g>
    <g id="xtick_3">
     <g id="line2d_5">
      <path d="M 307.79514 320.4 
L 307.79514 43.2 
" clip-path="url(#p016b9f3059)" style="fill: none; stroke-dasharray: 5.12,1.28,0.8,1.28; stroke-dashoffset: 0; stroke: #b0b0b0; stroke-width: 0.8"/>
     </g>
     <g id="line2d_6">
      <g>
       <use xlink:href="#mf9dd118b02" x="307.79514" y="320.4" style="fill: #a9a9a9; stroke: #a9a9a9; stroke-width: 0.8"/>
      </g>
     </g>
     <g id="text_3">
      <!-- 2022-05 -->
      <g style="fill: #a9a9a9" transform="translate(286.903733 334.998438) scale(0.1 -0.1)">
       <defs>
        <path id="DejaVuSans-35" d="M 691 4666 
L 3169 4666 
L 3169 4134 
L 1269 4134 
L 1269 2991 
Q 1406 3038 1543 3061 
Q 1681 3084 1819 3084 
Q 2600 3084 3056 2656 
Q 3513 2228 3513 1497 
Q 3513 744 3044 326 
Q 2575 -91 1722 -91 
Q 1428 -91 1123 -41 
Q 819 9 494 109 
L 494 744 
Q 775 591 1075 516 
Q 1375 441 1709 441 
Q 2250 441 2565 725 
Q 2881 1009 2881 1497 
Q 2881 1984 2565 2268 
Q 2250 2553 1709 2553 
Q 1456 2553 1204 2497 
Q 953 2441 691 2322 
L 691 4666 
z
" transform="scale(0.015625)"/>
       </defs>
       <use xlink:href="#DejaVuSans-32"/>
       <use xlink:href="#DejaVuSans-30" x="63.623047"/>
       <use xlink:href="#DejaVuSans-32" x="127.246094"/>
       <use xlink:href="#DejaVuSans-32" x="190.869141"/>
       <use xlink:href="#DejaVuSans-2d" x="254.492188"/>
       <use xlink:href="#DejaVuSans-30" x="290.576172"/>
       <use xlink:href="#DejaVuSans-35" x="354.199219"/>
      </g>
     </g>
    </g>
    <g id="xtick_4">
     <g id="line2d_7">
      <path d="M 381.927273 320.4 
L 381.927273 43.2 
" clip-path="url(#p016b9f3059)" style="fill: none; stroke-dasharray: 5.12,1.28,0.8,1.28; stroke-dashoffset: 0; stroke: #b0b0b0; stroke-width: 0.8"/>
     </g>
     <g id="line2d_8">
      <g>
       <use xlink:href="#mf9dd118b02" x="381.927273" y="320.4" style="fill: #a9a9a9; stroke: #a9a9a9; stroke-width: 0.8"/>
      </g>
     </g>
     <g id="text_4">
      <!-- 2022-09 -->
      <g style="fill: #a9a9a9" transform="translate(361.035866 334.998438) scale(0.1 -0.1)">
       <use xlink:href="#DejaVuSans-32"/>
       <use xlink:href="#DejaVuSans-30" x="63.623047"/>
       <use xlink:href="#DejaVuSans-32" x="127.246094"/>
       <use xlink:href="#DejaVuSans-32" x="190.869141"/>
       <use xlink:href="#DejaVuSans-2d" x="254.492188"/>
       <use xlink:href="#DejaVuSans-30" x="290.576172"/>
       <use xlink:href="#DejaVuSans-39" x="354.199219"/>
      </g>
     </g>
    </g>
    <g id="xtick_5">
     <g id="line2d_9">
      <path d="M 455.456706 320.4 
L 455.456706 43.2 
" clip-path="url(#p016b9f3059)" style="fill: none; stroke-dasharray: 5.12,1.28,0.8,1.28; stroke-dashoffset: 0; stroke: #b0b0b0; stroke-width: 0.8"/>
     </g>
     <g id="line2d_10">
      <g>
       <use xlink:href="#mf9dd118b02" x="455.456706" y="320.4" style="fill: #a9a9a9; stroke: #a9a9a9; stroke-width: 0.8"/>
      </g>
     </g>
     <g id="text_5">
      <!-- 2023-01 -->
      <g style="fill: #a9a9a9" transform="translate(434.565299 334.998438) scale(0.1 -0.1)">
       <defs>
        <path id="DejaVuSans-33" d="M 2597 2516 
Q 3050 2419 3304 2112 
Q 3559 1806 3559 1356 
Q 3559 666 3084 287 
Q 2609 -91 1734 -91 
Q 1441 -91 1130 -33 
Q 819 25 488 141 
L 488 750 
Q 750 597 1062 519 
Q 1375 441 1716 441 
Q 2309 441 2620 675 
Q 2931 909 2931 1356 
Q 2931 1769 2642 2001 
Q 2353 2234 1838 2234 
L 1294 2234 
L 1294 2753 
L 1863 2753 
Q 2328 2753 2575 2939 
Q 2822 3125 2822 3475 
Q 2822 3834 2567 4026 
Q 2313 4219 1838 4219 
Q 1578 4219 1281 4162 
Q 984 4106 628 3988 
L 628 4550 
Q 988 4650 1302 4700 
Q 1616 4750 1894 4750 
Q 2613 4750 3031 4423 
Q 3450 4097 3450 3541 
Q 3450 3153 3228 2886 
Q 3006 2619 2597 2516 
z
" transform="scale(0.015625)"/>
       </defs>
       <use xlink:href="#DejaVuSans-32"/>
       <use xlink:href="#DejaVuSans-30" x="63.623047"/>
       <use xlink:href="#DejaVuSans-32" x="127.246094"/>
       <use xlink:href="#DejaVuSans-33" x="190.869141"/>
       <use xlink:href="#DejaVuSans-2d" x="254.492188"/>
       <use xlink:href="#DejaVuSans-30" x="290.576172"/>
       <use xlink:href="#DejaVuSans-31" x="354.199219"/>
      </g>
     </g>
    </g>
    <g id="xtick_6">
     <g id="line2d_11">
      <path d="M 527.780738 320.4 
L 527.780738 43.2 
" clip-path="url(#p016b9f3059)" style="fill: none; stroke-dasharray: 5.12,1.28,0.8,1.28; stroke-dashoffset: 0; stroke: #b0b0b0; stroke-width: 0.8"/>
     </g>
     <g id="line2d_12">
      <g>
       <use xlink:href="#mf9dd118b02" x="527.780738" y="320.4" style="fill: #a9a9a9; stroke: #a9a9a9; stroke-width: 0.8"/>
      </g>
     </g>
     <g id="text_6">
      <!-- 2023-05 -->
      <g style="fill: #a9a9a9" transform="translate(506.889332 334.998438) scale(0.1 -0.1)">
       <use xlink:href="#DejaVuSans-32"/>
       <use xlink:href="#DejaVuSans-30" x="63.623047"/>
       <use xlink:href="#DejaVuSans-32" x="127.246094"/>
       <use xlink:href="#DejaVuSans-33" x="190.869141"/>
       <use xlink:href="#DejaVuSans-2d" x="254.492188"/>
       <use xlink:href="#DejaVuSans-30" x="290.576172"/>
       <use xlink:href="#DejaVuSans-35" x="354.199219"/>
      </g>
     </g>
    </g>
    <g id="xtick_7">
     <g id="line2d_13">
      <path d="M 601.912871 320.4 
L 601.912871 43.2 
" clip-path="url(#p016b9f3059)" style="fill: none; stroke-dasharray: 5.12,1.28,0.8,1.28; stroke-dashoffset: 0; stroke: #b0b0b0; stroke-width: 0.8"/>
     </g>
     <g id="line2d_14">
      <g>
       <use xlink:href="#mf9dd118b02" x="601.912871" y="320.4" style="fill: #a9a9a9; stroke: #a9a9a9; stroke-width: 0.8"/>
      </g>
     </g>
     <g id="text_7">
      <!-- 2023-09 -->
      <g style="fill: #a9a9a9" transform="translate(581.021465 334.998438) scale(0.1 -0.1)">
       <use xlink:href="#DejaVuSans-32"/>
       <use xlink:href="#DejaVuSans-30" x="63.623047"/>
       <use xlink:href="#DejaVuSans-32" x="127.246094"/>
       <use xlink:href="#DejaVuSans-33" x="190.869141"/>
       <use xlink:href="#DejaVuSans-2d" x="254.492188"/>
       <use xlink:href="#DejaVuSans-30" x="290.576172"/>
       <use xlink:href="#DejaVuSans-39" x="354.199219"/>
      </g>
     </g>
    </g>
    <g id="xtick_8">
     <g id="line2d_15">
      <path d="M 675.442304 320.4 
L 675.442304 43.2 
" clip-path="url(#p016b9f3059)" style="fill: none; stroke-dasharray: 5.12,1.28,0.8,1.28; stroke-dashoffset: 0; stroke: #b0b0b0; stroke-width: 0.8"/>
     </g>
     <g id="line2d_16">
      <g>
       <use xlink:href="#mf9dd118b02" x="675.442304" y="320.4" style="fill: #a9a9a9; stroke: #a9a9a9; stroke-width: 0.8"/>
      </g>
     </g>
     <g id="text_8">
      <!-- 2024-01 -->
      <g style="fill: #a9a9a9" transform="translate(654.550898 334.998438) scale(0.1 -0.1)">
       <defs>
        <path id="DejaVuSans-34" d="M 2419 4116 
L 825 1625 
L 2419 1625 
L 2419 4116 
z
M 2253 4666 
L 3047 4666 
L 3047 1625 
L 3713 1625 
L 3713 1100 
L 3047 1100 
L 3047 0 
L 2419 0 
L 2419 1100 
L 313 1100 
L 313 1709 
L 2253 4666 
z
" transform="scale(0.015625)"/>
       </defs>
       <use xlink:href="#DejaVuSans-32"/>
       <use xlink:href="#DejaVuSans-30" x="63.623047"/>
       <use xlink:href="#DejaVuSans-32" x="127.246094"/>
       <use xlink:href="#DejaVuSans-34" x="190.869141"/>
       <use xlink:href="#DejaVuSans-2d" x="254.492188"/>
       <use xlink:href="#DejaVuSans-30" x="290.576172"/>
       <use xlink:href="#DejaVuSans-31" x="354.199219"/>
      </g>
     </g>
    </g>
    <g id="xtick_9">
     <g id="line2d_17">
      <path d="M 748.369037 320.4 
L 748.369037 43.2 
" clip-path="url(#p016b9f3059)" style="fill: none; stroke-dasharray: 5.12,1.28,0.8,1.28; stroke-dashoffset: 0; stroke: #b0b0b0; stroke-width: 0.8"/>
     </g>
     <g id="line2d_18">
      <g>
       <use xlink:href="#mf9dd118b02" x="748.369037" y="320.4" style="fill: #a9a9a9; stroke: #a9a9a9; stroke-width: 0.8"/>
      </g>
     </g>
     <g id="text_9">
      <!-- 2024-05 -->
      <g style="fill: #a9a9a9" transform="translate(727.477631 334.998438) scale(0.1 -0.1)">
       <use xlink:href="#DejaVuSans-32"/>
       <use xlink:href="#DejaVuSans-30" x="63.623047"/>
       <use xlink:href="#DejaVuSans-32" x="127.246094"/>
       <use xlink:href="#DejaVuSans-34" x="190.869141"/>
       <use xlink:href="#DejaVuSans-2d" x="254.492188"/>
       <use xlink:href="#DejaVuSans-30" x="290.576172"/>
       <use xlink:href="#DejaVuSans-35" x="354.199219"/>
      </g>
     </g>
    </g>
   </g>
   <g id="matplotlib.axis_2">
    <g id="ytick_1">
     <g id="line2d_19">
      <path d="M 108 307.841958 
L 777.6 307.841958 
" clip-path="url(#p016b9f3059)" style="fill: none; stroke-dasharray: 5.12,1.28,0.8,1.28; stroke-dashoffset: 0; stroke: #b0b0b0; stroke-width: 0.8"/>
     </g>
     <g id="line2d_20">
      <defs>
       <path id="mbe386e1227" d="M 0 0 
L -3.5 0 
" style="stroke: #a9a9a9; stroke-width: 0.8"/>
      </defs>
      <g>
       <use xlink:href="#mbe386e1227" x="108" y="307.841958" style="fill: #a9a9a9; stroke: #a9a9a9; stroke-width: 0.8"/>
      </g>
     </g>
     <g id="text_10">
      <!-- 0 -->
      <g style="fill: #a9a9a9" transform="translate(94.6375 311.641177) scale(0.1 -0.1)">
       <use xlink:href="#DejaVuSans-30"/>
      </g>
     </g>
    </g>
    <g id="ytick_2">
     <g id="line2d_21">
      <path d="M 108 274.275524 
L 777.6 274.275524 
" clip-path="url(#p016b9f3059)" style="fill: none; stroke-dasharray: 5.12,1.28,0.8,1.28; stroke-dashoffset: 0; stroke: #b0b0b0; stroke-width: 0.8"/>
     </g>
     <g id="line2d_22">
      <g>
       <use xlink:href="#mbe386e1227" x="108" y="274.275524" style="fill: #a9a9a9; stroke: #a9a9a9; stroke-width: 0.8"/>
      </g>
     </g>
     <g id="text_11">
      <!-- 800 -->
      <g style="fill: #a9a9a9" transform="translate(81.9125 278.074743) scale(0.1 -0.1)">
       <defs>
        <path id="DejaVuSans-38" d="M 2034 2216 
Q 1584 2216 1326 1975 
Q 1069 1734 1069 1313 
Q 1069 891 1326 650 
Q 1584 409 2034 409 
Q 2484 409 2743 651 
Q 3003 894 3003 1313 
Q 3003 1734 2745 1975 
Q 2488 2216 2034 2216 
z
M 1403 2484 
Q 997 2584 770 2862 
Q 544 3141 544 3541 
Q 544 4100 942 4425 
Q 1341 4750 2034 4750 
Q 2731 4750 3128 4425 
Q 3525 4100 3525 3541 
Q 3525 3141 3298 2862 
Q 3072 2584 2669 2484 
Q 3125 2378 3379 2068 
Q 3634 1759 3634 1313 
Q 3634 634 3220 271 
Q 2806 -91 2034 -91 
Q 1263 -91 848 271 
Q 434 634 434 1313 
Q 434 1759 690 2068 
Q 947 2378 1403 2484 
z
M 1172 3481 
Q 1172 3119 1398 2916 
Q 1625 2713 2034 2713 
Q 2441 2713 2670 2916 
Q 2900 3119 2900 3481 
Q 2900 3844 2670 4047 
Q 2441 4250 2034 4250 
Q 1625 4250 1398 4047 
Q 1172 3844 1172 3481 
z
" transform="scale(0.015625)"/>
       </defs>
       <use xlink:href="#DejaVuSans-38"/>
       <use xlink:href="#DejaVuSans-30" x="63.623047"/>
       <use xlink:href="#DejaVuSans-30" x="127.246094"/>
      </g>
     </g>
    </g>
    <g id="ytick_3">
     <g id="line2d_23">
      <path d="M 108 240.709091 
L 777.6 240.709091 
" clip-path="url(#p016b9f3059)" style="fill: none; stroke-dasharray: 5.12,1.28,0.8,1.28; stroke-dashoffset: 0; stroke: #b0b0b0; stroke-width: 0.8"/>
     </g>
     <g id="line2d_24">
      <g>
       <use xlink:href="#mbe386e1227" x="108" y="240.709091" style="fill: #a9a9a9; stroke: #a9a9a9; stroke-width: 0.8"/>
      </g>
     </g>
     <g id="text_12">
      <!-- 1600 -->
      <g style="fill: #a9a9a9" transform="translate(75.55 244.50831) scale(0.1 -0.1)">
       <defs>
        <path id="DejaVuSans-36" d="M 2113 2584 
Q 1688 2584 1439 2293 
Q 1191 2003 1191 1497 
Q 1191 994 1439 701 
Q 1688 409 2113 409 
Q 2538 409 2786 701 
Q 3034 994 3034 1497 
Q 3034 2003 2786 2293 
Q 2538 2584 2113 2584 
z
M 3366 4563 
L 3366 3988 
Q 3128 4100 2886 4159 
Q 2644 4219 2406 4219 
Q 1781 4219 1451 3797 
Q 1122 3375 1075 2522 
Q 1259 2794 1537 2939 
Q 1816 3084 2150 3084 
Q 2853 3084 3261 2657 
Q 3669 2231 3669 1497 
Q 3669 778 3244 343 
Q 2819 -91 2113 -91 
Q 1303 -91 875 529 
Q 447 1150 447 2328 
Q 447 3434 972 4092 
Q 1497 4750 2381 4750 
Q 2619 4750 2861 4703 
Q 3103 4656 3366 4563 
z
" transform="scale(0.015625)"/>
       </defs>
       <use xlink:href="#DejaVuSans-31"/>
       <use xlink:href="#DejaVuSans-36" x="63.623047"/>
       <use xlink:href="#DejaVuSans-30" x="127.246094"/>
       <use xlink:href="#DejaVuSans-30" x="190.869141"/>
      </g>
     </g>
    </g>
    <g id="ytick_4">
     <g id="line2d_25">
      <path d="M 108 207.142657 
L 777.6 207.142657 
" clip-path="url(#p016b9f3059)" style="fill: none; stroke-dasharray: 5.12,1.28,0.8,1.28; stroke-dashoffset: 0; stroke: #b0b0b0; stroke-width: 0.8"/>
     </g>
     <g id="line2d_26">
      <g>
       <use xlink:href="#mbe386e1227" x="108" y="207.142657" style="fill: #a9a9a9; stroke: #a9a9a9; stroke-width: 0.8"/>
      </g>
     </g>
     <g id="text_13">
      <!-- 2400 -->
      <g style="fill: #a9a9a9" transform="translate(75.55 210.941876) scale(0.1 -0.1)">
       <use xlink:href="#DejaVuSans-32"/>
       <use xlink:href="#DejaVuSans-34" x="63.623047"/>
       <use xlink:href="#DejaVuSans-30" x="127.246094"/>
       <use xlink:href="#DejaVuSans-30" x="190.869141"/>
      </g>
     </g>
    </g>
    <g id="ytick_5">
     <g id="line2d_27">
      <path d="M 108 173.576224 
L 777.6 173.576224 
" clip-path="url(#p016b9f3059)" style="fill: none; stroke-dasharray: 5.12,1.28,0.8,1.28; stroke-dashoffset: 0; stroke: #b0b0b0; stroke-width: 0.8"/>
     </g>
     <g id="line2d_28">
      <g>
       <use xlink:href="#mbe386e1227" x="108" y="173.576224" style="fill: #a9a9a9; stroke: #a9a9a9; stroke-width: 0.8"/>
      </g>
     </g>
     <g id="text_14">
      <!-- 3200 -->
      <g style="fill: #a9a9a9" transform="translate(75.55 177.375443) scale(0.1 -0.1)">
       <use xlink:href="#DejaVuSans-33"/>
       <use xlink:href="#DejaVuSans-32" x="63.623047"/>
       <use xlink:href="#DejaVuSans-30" x="127.246094"/>
       <use xlink:href="#DejaVuSans-30" x="190.869141"/>
      </g>
     </g>
    </g>
    <g id="ytick_6">
     <g id="line2d_29">
      <path d="M 108 140.00979 
L 777.6 140.00979 
" clip-path="url(#p016b9f3059)" style="fill: none; stroke-dasharray: 5.12,1.28,0.8,1.28; stroke-dashoffset: 0; stroke: #b0b0b0; stroke-width: 0.8"/>
     </g>
     <g id="line2d_30">
      <g>
       <use xlink:href="#mbe386e1227" x="108" y="140.00979" style="fill: #a9a9a9; stroke: #a9a9a9; stroke-width: 0.8"/>
      </g>
     </g>
     <g id="text_15">
      <!-- 4000 -->
      <g style="fill: #a9a9a9" transform="translate(75.55 143.809009) scale(0.1 -0.1)">
       <use xlink:href="#DejaVuSans-34"/>
       <use xlink:href="#DejaVuSans-30" x="63.623047"/>
       <use xlink:href="#DejaVuSans-30" x="127.246094"/>
       <use xlink:href="#DejaVuSans-30" x="190.869141"/>
      </g>
     </g>
    </g>
    <g id="ytick_7">
     <g id="line2d_31">
      <path d="M 108 106.443357 
L 777.6 106.443357 
" clip-path="url(#p016b9f3059)" style="fill: none; stroke-dasharray: 5.12,1.28,0.8,1.28; stroke-dashoffset: 0; stroke: #b0b0b0; stroke-width: 0.8"/>
     </g>
     <g id="line2d_32">
      <g>
       <use xlink:href="#mbe386e1227" x="108" y="106.443357" style="fill: #a9a9a9; stroke: #a9a9a9; stroke-width: 0.8"/>
      </g>
     </g>
     <g id="text_16">
      <!-- 4800 -->
      <g style="fill: #a9a9a9" transform="translate(75.55 110.242575) scale(0.1 -0.1)">
       <use xlink:href="#DejaVuSans-34"/>
       <use xlink:href="#DejaVuSans-38" x="63.623047"/>
       <use xlink:href="#DejaVuSans-30" x="127.246094"/>
       <use xlink:href="#DejaVuSans-30" x="190.869141"/>
      </g>
     </g>
    </g>
    <g id="ytick_8">
     <g id="line2d_33">
      <path d="M 108 72.876923 
L 777.6 72.876923 
" clip-path="url(#p016b9f3059)" style="fill: none; stroke-dasharray: 5.12,1.28,0.8,1.28; stroke-dashoffset: 0; stroke: #b0b0b0; stroke-width: 0.8"/>
     </g>
     <g id="line2d_34">
      <g>
       <use xlink:href="#mbe386e1227" x="108" y="72.876923" style="fill: #a9a9a9; stroke: #a9a9a9; stroke-width: 0.8"/>
      </g>
     </g>
     <g id="text_17">
      <!-- 5600 -->
      <g style="fill: #a9a9a9" transform="translate(75.55 76.676142) scale(0.1 -0.1)">
       <use xlink:href="#DejaVuSans-35"/>
       <use xlink:href="#DejaVuSans-36" x="63.623047"/>
       <use xlink:href="#DejaVuSans-30" x="127.246094"/>
       <use xlink:href="#DejaVuSans-30" x="190.869141"/>
      </g>
     </g>
    </g>
   </g>
   <g id="line2d_35">
    <path d="M 138.436364 307.716084 
L 142.052565 307.422378 
L 142.655266 307.170629 
L 144.463366 306.960839 
L 148.079568 306.247552 
L 151.69577 305.953846 
L 152.29847 305.66014 
L 152.90117 305.492308 
L 153.50387 304.737063 
L 154.106571 304.317483 
L 154.709271 303.016783 
L 155.311971 302.932867 
L 155.914671 302.471329 
L 157.120072 301.883916 
L 159.530873 300.037762 
L 160.736274 299.534266 
L 161.338974 299.114685 
L 163.749775 298.065734 
L 164.352475 297.142657 
L 165.557876 296.303497 
L 166.160576 296.00979 
L 172.187579 295.170629 
L 172.790279 294.876923 
L 177.009181 294.541259 
L 178.817282 294.07972 
L 184.241584 293.366434 
L 184.844284 293.030769 
L 185.446985 292.946853 
L 186.049685 292.695105 
L 187.255086 292.485315 
L 187.857786 292.443357 
L 189.063186 292.191608 
L 189.665887 292.14965 
L 192.076688 291.562238 
L 193.884788 291.394406 
L 195.090189 291.268531 
L 195.692889 291.100699 
L 196.29559 291.058741 
L 198.10369 290.513287 
L 199.309091 290.429371 
L 200.514491 290.261538 
L 201.719892 290.00979 
L 202.322592 289.841958 
L 202.925293 289.044755 
L 204.733393 288.373427 
L 206.541494 287.911888 
L 207.144194 287.618182 
L 207.746895 287.576224 
L 210.760396 286.737063 
L 211.965797 286.653147 
L 212.568497 286.569231 
L 214.376598 286.023776 
L 216.787399 285.436364 
L 217.390099 285.184615 
L 217.992799 285.100699 
L 218.5955 284.806993 
L 224.622502 283.925874 
L 227.636004 283.086713 
L 228.238704 282.709091 
L 230.649505 282.07972 
L 233.060306 280.862937 
L 234.868407 280.443357 
L 235.471107 280.359441 
L 236.073807 280.065734 
L 237.279208 279.855944 
L 238.484608 279.31049 
L 241.49811 278.555245 
L 243.306211 278.093706 
L 243.908911 277.841958 
L 244.511611 277.716084 
L 245.114311 277.464336 
L 245.717012 277.38042 
L 246.319712 277.086713 
L 246.922412 276.918881 
L 248.127813 276.834965 
L 249.333213 276.415385 
L 250.538614 276.331469 
L 251.141314 276.037762 
L 252.346715 275.86993 
L 252.949415 275.66014 
L 254.154815 275.618182 
L 256.565617 275.324476 
L 257.771017 274.737063 
L 264.40072 271.925874 
L 265.00342 271.59021 
L 265.606121 270.960839 
L 266.811521 269.198601 
L 267.414221 269.030769 
L 268.016922 269.030769 
L 269.222322 268.14965 
L 269.825023 267.981818 
L 270.427723 267.688112 
L 271.030423 267.562238 
L 271.633123 267.016783 
L 272.235824 266.848951 
L 274.043924 265.967832 
L 275.249325 264.28951 
L 275.852025 263.911888 
L 276.454725 262.904895 
L 277.057426 262.275524 
L 277.660126 261.981818 
L 278.262826 261.813986 
L 280.673627 260.387413 
L 281.879028 259.422378 
L 282.481728 259.044755 
L 283.084428 258.163636 
L 283.687129 256.820979 
L 284.289829 255.93986 
L 284.892529 255.478322 
L 285.49523 255.226573 
L 287.906031 253.128671 
L 289.111431 252.163636 
L 289.714131 251.66014 
L 290.316832 250.862937 
L 291.522232 249.813986 
L 293.933033 248.261538 
L 294.535734 247.758042 
L 295.138434 247.632168 
L 295.741134 247.38042 
L 297.549235 246.373427 
L 299.357336 245.240559 
L 301.165437 243.478322 
L 301.768137 243.100699 
L 302.370837 242.932867 
L 302.973537 242.639161 
L 304.178938 241.841958 
L 304.781638 241.506294 
L 305.384338 241.422378 
L 310.205941 238.527273 
L 312.014041 237.562238 
L 312.616742 237.016783 
L 315.027543 236.261538 
L 315.630243 235.841958 
L 316.232943 235.716084 
L 317.438344 235.296503 
L 319.246445 234.583217 
L 321.054545 233.911888 
L 322.259946 233.702098 
L 323.465347 232.653147 
L 325.273447 231.813986 
L 326.478848 231.100699 
L 327.684248 230.765035 
L 328.286949 230.387413 
L 328.889649 230.21958 
L 330.69775 229.086713 
L 333.711251 228.373427 
L 335.519352 227.324476 
L 336.122052 227.240559 
L 336.724752 227.030769 
L 337.930153 226.779021 
L 339.738254 225.436364 
L 341.546355 225.016783 
L 342.149055 224.806993 
L 342.751755 224.345455 
L 346.367957 223.170629 
L 346.970657 223.128671 
L 347.573357 222.960839 
L 348.778758 222.457343 
L 352.99766 220.988811 
L 354.20306 220.820979 
L 354.805761 220.653147 
L 355.408461 220.359441 
L 356.011161 220.233566 
L 357.819262 219.394406 
L 359.627363 218.513287 
L 360.230063 218.093706 
L 360.832763 217.925874 
L 362.640864 216.960839 
L 363.846265 216.667133 
L 365.051665 216.037762 
L 366.257066 215.702098 
L 366.859766 215.618182 
L 368.065167 214.904895 
L 368.667867 214.779021 
L 369.873267 214.275524 
L 370.475968 214.14965 
L 371.078668 213.813986 
L 373.489469 213.436364 
L 374.694869 212.848951 
L 375.29757 212.345455 
L 375.90027 211.296503 
L 377.708371 210.960839 
L 380.119172 209.702098 
L 380.721872 209.576224 
L 384.940774 207.562238 
L 386.146175 207.226573 
L 387.351575 206.974825 
L 388.556976 206.387413 
L 389.159676 206.135664 
L 389.762376 206.051748 
L 392.173177 205.002797 
L 393.981278 203.86993 
L 394.583978 203.786014 
L 395.186679 203.576224 
L 395.789379 203.534266 
L 398.80288 202.779021 
L 399.405581 202.317483 
L 400.610981 201.897902 
L 402.419082 201.31049 
L 403.021782 200.932867 
L 403.624482 200.765035 
L 404.227183 200.345455 
L 404.829883 200.093706 
L 406.035284 199.464336 
L 408.446085 198.751049 
L 409.048785 198.457343 
L 410.856886 197.072727 
L 411.459586 196.946853 
L 412.664986 196.023776 
L 413.267687 195.897902 
L 413.870387 194.974825 
L 414.473087 194.723077 
L 415.075788 194.261538 
L 415.678488 194.177622 
L 416.883888 193.464336 
L 417.486589 193.338462 
L 418.089289 193.086713 
L 418.691989 192.625175 
L 419.294689 192.415385 
L 421.10279 191.198601 
L 423.513591 189.981818 
L 424.116292 189.897902 
L 425.321692 189.352448 
L 425.924392 189.016783 
L 426.527093 188.00979 
L 427.129793 187.464336 
L 427.732493 187.128671 
L 428.335194 187.002797 
L 429.540594 186.247552 
L 430.143294 186.121678 
L 431.348695 185.534266 
L 433.156796 184.779021 
L 434.362196 183.93986 
L 435.567597 182.681119 
L 438.581098 180.499301 
L 439.786499 179.534266 
L 440.389199 179.282517 
L 440.991899 178.611189 
L 441.594599 178.14965 
L 442.8 177.73007 
L 444.005401 176.932867 
L 444.608101 176.639161 
L 445.210801 176.471329 
L 445.813501 176.051748 
L 446.416202 175.967832 
L 448.224302 175.002797 
L 449.429703 174.28951 
L 455.456706 172.14965 
L 456.059406 171.604196 
L 457.867507 170.932867 
L 459.072907 170.555245 
L 459.675608 170.093706 
L 462.086409 168.834965 
L 462.689109 168.499301 
L 463.894509 166.14965 
L 465.09991 164.723077 
L 466.305311 164.00979 
L 468.113411 163.296503 
L 468.716112 163.212587 
L 469.318812 162.876923 
L 471.126913 162.331469 
L 473.537714 161.240559 
L 474.140414 160.862937 
L 475.345815 160.443357 
L 478.962016 158.345455 
L 479.564716 157.716084 
L 480.770117 157.086713 
L 484.386319 155.198601 
L 484.989019 154.946853 
L 485.591719 154.569231 
L 486.194419 154.443357 
L 486.79712 153.981818 
L 489.810621 153.016783 
L 490.413321 152.848951 
L 491.016022 152.555245 
L 491.618722 152.135664 
L 492.824122 151.8 
L 494.029523 151.338462 
L 494.632223 150.876923 
L 495.837624 150.499301 
L 496.440324 150.205594 
L 497.043024 150.037762 
L 498.248425 149.198601 
L 499.453825 148.695105 
L 500.659226 147.772028 
L 501.864626 147.352448 
L 502.467327 146.848951 
L 503.070027 146.765035 
L 504.275428 145.883916 
L 505.480828 145.296503 
L 506.083528 145.044755 
L 506.686229 144.457343 
L 510.30243 143.156643 
L 512.110531 142.359441 
L 513.918632 141.813986 
L 515.124032 141.646154 
L 515.726733 141.394406 
L 516.329433 141.31049 
L 517.534833 140.806993 
L 518.137534 140.765035 
L 520.548335 139.883916 
L 522.356436 138.667133 
L 522.959136 138.415385 
L 524.164536 137.786014 
L 524.767237 137.576224 
L 528.383438 135.604196 
L 528.986139 135.478322 
L 530.794239 134.471329 
L 532.60234 133.883916 
L 533.205041 133.632168 
L 534.410441 133.338462 
L 537.423942 132.373427 
L 539.232043 132.07972 
L 541.642844 131.324476 
L 542.245545 131.072727 
L 542.848245 130.988811 
L 543.450945 130.695105 
L 544.656346 130.443357 
L 545.861746 130.023776 
L 546.464446 129.813986 
L 547.669847 129.688112 
L 548.875248 129.394406 
L 550.683348 129.100699 
L 551.286049 128.890909 
L 552.491449 128.765035 
L 555.50495 128.00979 
L 556.710351 127.716084 
L 557.313051 127.38042 
L 560.326553 126.625175 
L 560.929253 126.499301 
L 562.134653 126.07972 
L 563.942754 125.45035 
L 564.545455 125.366434 
L 566.353555 124.737063 
L 566.956256 124.737063 
L 568.161656 124.317483 
L 568.764356 123.73007 
L 569.367057 123.436364 
L 570.572457 123.058741 
L 572.983258 122.135664 
L 573.585959 122.00979 
L 574.188659 121.632168 
L 574.791359 121.506294 
L 575.394059 121.170629 
L 578.407561 120.28951 
L 579.010261 119.911888 
L 579.612961 119.786014 
L 580.215662 119.282517 
L 582.023762 118.946853 
L 583.229163 118.275524 
L 583.831863 117.604196 
L 585.037264 117.352448 
L 589.256166 116.387413 
L 589.858866 116.21958 
L 591.064266 116.177622 
L 591.666967 115.883916 
L 594.077768 115.464336 
L 594.680468 115.212587 
L 596.488569 114.960839 
L 598.89937 114.205594 
L 600.707471 113.786014 
L 602.515572 113.324476 
L 604.323672 112.779021 
L 607.337174 111.897902 
L 608.542574 111.352448 
L 609.747975 110.932867 
L 610.350675 110.471329 
L 611.556076 110.135664 
L 612.158776 109.883916 
L 613.364176 109.548252 
L 615.774977 108.457343 
L 617.583078 108.331469 
L 619.993879 107.66014 
L 620.59658 107.282517 
L 621.80198 106.946853 
L 623.610081 106.023776 
L 624.212781 105.897902 
L 624.815482 105.604196 
L 625.418182 105.562238 
L 632.047885 103.338462 
L 634.458686 102.751049 
L 635.061386 102.583217 
L 636.266787 102.037762 
L 636.869487 101.953846 
L 638.074887 101.618182 
L 638.677588 101.156643 
L 639.280288 100.862937 
L 639.882988 100.14965 
L 640.485689 99.73007 
L 641.691089 99.352448 
L 642.293789 98.890909 
L 647.115392 96.918881 
L 647.718092 96.751049 
L 648.320792 96.373427 
L 650.731593 95.66014 
L 651.936994 95.072727 
L 653.142394 94.359441 
L 653.745095 94.233566 
L 654.347795 93.772028 
L 656.155896 92.806993 
L 657.361296 92.21958 
L 657.963996 92.00979 
L 659.772097 91.002797 
L 660.374797 90.793007 
L 661.580198 90.07972 
L 662.182898 89.86993 
L 662.785599 89.45035 
L 663.990999 89.030769 
L 664.593699 88.904895 
L 667.0045 87.813986 
L 670.018002 86.765035 
L 670.620702 86.723077 
L 671.223402 86.555245 
L 671.826103 86.177622 
L 672.428803 86.093706 
L 673.031503 85.883916 
L 674.839604 85.548252 
L 679.058506 83.408392 
L 679.661206 83.324476 
L 681.469307 82.359441 
L 683.277408 81.688112 
L 685.085509 80.890909 
L 687.49631 79.925874 
L 688.09901 79.758042 
L 688.70171 79.38042 
L 689.907111 79.212587 
L 690.509811 78.834965 
L 691.112511 78.793007 
L 692.317912 78.415385 
L 693.523312 77.827972 
L 694.126013 77.744056 
L 694.728713 77.492308 
L 695.331413 77.366434 
L 697.139514 76.569231 
L 697.742214 76.443357 
L 698.344914 76.191608 
L 701.358416 75.478322 
L 703.166517 74.806993 
L 705.577318 73.422378 
L 706.782718 72.960839 
L 707.385419 72.583217 
L 708.590819 72.331469 
L 709.193519 71.995804 
L 709.79622 71.86993 
L 711.00162 71.198601 
L 714.617822 69.52028 
L 716.425923 68.932867 
L 717.631323 68.513287 
L 718.234023 68.303497 
L 719.439424 67.716084 
L 720.644824 67.338462 
L 721.247525 67.212587 
L 722.452925 66.667133 
L 723.055626 66.457343 
L 723.658326 66.121678 
L 724.261026 66.037762 
L 724.863726 65.827972 
L 726.069127 65.156643 
L 728.479928 64.065734 
L 729.685329 63.646154 
L 730.890729 63.016783 
L 731.493429 62.932867 
L 734.506931 61.632168 
L 735.109631 61.212587 
L 737.520432 60.415385 
L 738.123132 60.415385 
L 739.328533 59.86993 
L 739.931233 59.408392 
L 740.533933 58.737063 
L 741.136634 58.233566 
L 741.739334 57.93986 
L 742.342034 57.772028 
L 742.944734 57.394406 
L 743.547435 57.268531 
L 744.150135 56.974825 
L 744.752835 56.890909 
L 745.355536 56.471329 
L 745.958236 56.345455 
L 747.163636 55.8 
L 747.163636 55.8 
" clip-path="url(#p016b9f3059)" style="fill: none; stroke: #1f77b4; stroke-width: 1.5; stroke-linecap: square"/>
   </g>
   <g id="line2d_36">
    <path d="M 139.039064 307.8 
L 140.847165 307.716084 
L 142.655266 307.674126 
L 146.271467 307.59021 
L 149.284968 307.464336 
L 151.69577 307.464336 
L 152.29847 307.296503 
L 154.709271 307.212587 
L 156.517372 307.002797 
L 158.325473 306.834965 
L 161.941674 306.667133 
L 162.544374 306.667133 
L 163.147075 306.541259 
L 165.557876 306.457343 
L 166.763276 306.373427 
L 171.584878 306.28951 
L 174.59838 306.163636 
L 181.830783 306.07972 
L 184.844284 305.953846 
L 188.460486 305.86993 
L 190.871287 305.786014 
L 196.29559 305.702098 
L 198.10369 305.66014 
L 199.911791 305.618182 
L 201.719892 305.408392 
L 205.336094 305.366434 
L 206.541494 305.282517 
L 210.760396 305.198601 
L 217.390099 304.820979 
L 221.609001 304.737063 
L 222.814401 304.653147 
L 224.622502 304.569231 
L 228.238704 304.401399 
L 230.649505 304.359441 
L 232.457606 304.191608 
L 240.292709 303.73007 
L 243.306211 303.646154 
L 248.730513 303.352448 
L 250.538614 303.268531 
L 256.565617 302.932867 
L 263.19532 302.848951 
L 265.606121 302.597203 
L 266.811521 302.513287 
L 274.646625 301.883916 
L 278.262826 301.422378 
L 280.673627 301.338462 
L 285.49523 300.709091 
L 289.111431 300.625175 
L 290.919532 300.457343 
L 292.124932 300.415385 
L 293.330333 300.28951 
L 295.138434 300.205594 
L 296.343834 300.037762 
L 299.357336 299.702098 
L 301.768137 299.618182 
L 302.973537 299.534266 
L 305.384338 299.45035 
L 306.589739 299.366434 
L 309.60324 299.072727 
L 310.205941 298.904895 
L 313.822142 298.737063 
L 316.835644 298.653147 
L 324.670747 298.191608 
L 326.478848 298.107692 
L 334.313951 297.646154 
L 338.532853 297.562238 
L 339.135554 297.436364 
L 343.957156 297.352448 
L 348.176058 297.142657 
L 354.805761 297.058741 
L 359.024662 296.848951 
L 363.846265 296.765035 
L 368.667867 296.513287 
L 372.886769 296.429371 
L 384.338074 295.716084 
L 389.159676 295.632168 
L 404.829883 294.625175 
L 408.446085 294.541259 
L 410.254185 294.499301 
L 412.062286 294.457343 
L 413.870387 294.28951 
L 418.691989 294.205594 
L 419.89739 293.995804 
L 421.10279 293.911888 
L 424.116292 293.786014 
L 425.321692 293.702098 
L 426.527093 293.618182 
L 431.951395 293.534266 
L 433.156796 293.408392 
L 435.567597 293.366434 
L 436.170297 293.240559 
L 437.375698 293.156643 
L 437.978398 293.030769 
L 439.786499 292.946853 
L 449.429703 292.359441 
L 451.840504 292.275524 
L 454.854005 292.14965 
L 463.291809 292.065734 
L 467.510711 291.855944 
L 472.332313 291.772028 
L 474.743114 291.688112 
L 477.153915 291.646154 
L 478.359316 291.52028 
L 480.770117 291.436364 
L 486.79712 291.100699 
L 490.413321 291.058741 
L 492.221422 290.890909 
L 494.029523 290.848951 
L 498.248425 290.765035 
L 500.659226 290.681119 
L 507.891629 290.597203 
L 510.905131 290.471329 
L 514.521332 290.387413 
L 516.329433 290.177622 
L 519.945635 290.135664 
L 521.753735 289.967832 
L 524.164536 289.883916 
L 531.39694 289.8 
L 534.410441 289.674126 
L 544.656346 289.632168 
L 545.861746 289.548252 
L 547.669847 289.506294 
L 555.50495 289.422378 
L 556.710351 289.338462 
L 563.340054 289.254545 
L 565.750855 289.170629 
L 572.983258 289.128671 
L 574.188659 289.044755 
L 583.229163 289.002797 
L 585.037264 288.834965 
L 600.10477 288.751049 
L 601.912871 288.709091 
L 618.185779 288.625175 
L 620.59658 288.541259 
L 630.842484 288.457343 
L 632.047885 288.373427 
L 635.061386 288.28951 
L 636.869487 288.121678 
L 639.882988 288.037762 
L 642.293789 287.953846 
L 645.909991 287.86993 
L 647.718092 287.827972 
L 650.128893 287.744056 
L 651.936994 287.702098 
L 654.950495 287.618182 
L 656.155896 287.534266 
L 659.772097 287.45035 
L 662.785599 287.324476 
L 663.990999 287.282517 
L 665.1964 287.198601 
L 667.0045 287.156643 
L 669.415302 287.072727 
L 671.826103 286.988811 
L 679.661206 286.904895 
L 682.072007 286.820979 
L 686.893609 286.737063 
L 691.112511 286.527273 
L 696.536814 286.443357 
L 697.742214 286.359441 
L 708.590819 286.275524 
L 710.39892 286.233566 
L 713.412421 286.191608 
L 715.823222 285.93986 
L 717.631323 285.897902 
L 721.247525 285.813986 
L 727.877228 285.436364 
L 730.288029 285.352448 
L 732.69883 285.268531 
L 736.315032 285.184615 
L 737.520432 285.100699 
L 739.931233 285.016783 
L 742.342034 284.765035 
L 744.752835 284.681119 
L 747.163636 284.597203 
L 747.163636 284.597203 
" clip-path="url(#p016b9f3059)" style="fill: none; stroke: #ff7f0e; stroke-width: 1.5; stroke-linecap: square"/>
   </g>
   <g id="patch_3">
    <path d="M 108 320.4 
L 108 43.2 
" style="fill: none; stroke: #a9a9a9; stroke-width: 0.8; stroke-linejoin: miter; stroke-linecap: square"/>
   </g>
   <g id="patch_4">
    <path d="M 777.6 320.4 
L 777.6 43.2 
" style="fill: none"/>
   </g>
   <g id="patch_5">
    <path d="M 108 320.4 
L 777.6 320.4 
" style="fill: none; stroke: #a9a9a9; stroke-width: 0.8; stroke-linejoin: miter; stroke-linecap: square"/>
   </g>
   <g id="patch_6">
    <path d="M 108 43.2 
L 777.6 43.2 
" style="fill: none"/>
   </g>
   <g id="text_18">
    <!-- get_subscribe history -->
    <g style="fill: #a9a9a9" transform="translate(378.6075 37.2) scale(0.12 -0.12)">
     <defs>
      <path id="DejaVuSans-67" d="M 2906 1791 
Q 2906 2416 2648 2759 
Q 2391 3103 1925 3103 
Q 1463 3103 1205 2759 
Q 947 2416 947 1791 
Q 947 1169 1205 825 
Q 1463 481 1925 481 
Q 2391 481 2648 825 
Q 2906 1169 2906 1791 
z
M 3481 434 
Q 3481 -459 3084 -895 
Q 2688 -1331 1869 -1331 
Q 1566 -1331 1297 -1286 
Q 1028 -1241 775 -1147 
L 775 -588 
Q 1028 -725 1275 -790 
Q 1522 -856 1778 -856 
Q 2344 -856 2625 -561 
Q 2906 -266 2906 331 
L 2906 616 
Q 2728 306 2450 153 
Q 2172 0 1784 0 
Q 1141 0 747 490 
Q 353 981 353 1791 
Q 353 2603 747 3093 
Q 1141 3584 1784 3584 
Q 2172 3584 2450 3431 
Q 2728 3278 2906 2969 
L 2906 3500 
L 3481 3500 
L 3481 434 
z
" transform="scale(0.015625)"/>
      <path id="DejaVuSans-65" d="M 3597 1894 
L 3597 1613 
L 953 1613 
Q 991 1019 1311 708 
Q 1631 397 2203 397 
Q 2534 397 2845 478 
Q 3156 559 3463 722 
L 3463 178 
Q 3153 47 2828 -22 
Q 2503 -91 2169 -91 
Q 1331 -91 842 396 
Q 353 884 353 1716 
Q 353 2575 817 3079 
Q 1281 3584 2069 3584 
Q 2775 3584 3186 3129 
Q 3597 2675 3597 1894 
z
M 3022 2063 
Q 3016 2534 2758 2815 
Q 2500 3097 2075 3097 
Q 1594 3097 1305 2825 
Q 1016 2553 972 2059 
L 3022 2063 
z
" transform="scale(0.015625)"/>
      <path id="DejaVuSans-74" d="M 1172 4494 
L 1172 3500 
L 2356 3500 
L 2356 3053 
L 1172 3053 
L 1172 1153 
Q 1172 725 1289 603 
Q 1406 481 1766 481 
L 2356 481 
L 2356 0 
L 1766 0 
Q 1100 0 847 248 
Q 594 497 594 1153 
L 594 3053 
L 172 3053 
L 172 3500 
L 594 3500 
L 594 4494 
L 1172 4494 
z
" transform="scale(0.015625)"/>
      <path id="DejaVuSans-5f" d="M 3263 -1063 
L 3263 -1509 
L -63 -1509 
L -63 -1063 
L 3263 -1063 
z
" transform="scale(0.015625)"/>
      <path id="DejaVuSans-73" d="M 2834 3397 
L 2834 2853 
Q 2591 2978 2328 3040 
Q 2066 3103 1784 3103 
Q 1356 3103 1142 2972 
Q 928 2841 928 2578 
Q 928 2378 1081 2264 
Q 1234 2150 1697 2047 
L 1894 2003 
Q 2506 1872 2764 1633 
Q 3022 1394 3022 966 
Q 3022 478 2636 193 
Q 2250 -91 1575 -91 
Q 1294 -91 989 -36 
Q 684 19 347 128 
L 347 722 
Q 666 556 975 473 
Q 1284 391 1588 391 
Q 1994 391 2212 530 
Q 2431 669 2431 922 
Q 2431 1156 2273 1281 
Q 2116 1406 1581 1522 
L 1381 1569 
Q 847 1681 609 1914 
Q 372 2147 372 2553 
Q 372 3047 722 3315 
Q 1072 3584 1716 3584 
Q 2034 3584 2315 3537 
Q 2597 3491 2834 3397 
z
" transform="scale(0.015625)"/>
      <path id="DejaVuSans-75" d="M 544 1381 
L 544 3500 
L 1119 3500 
L 1119 1403 
Q 1119 906 1312 657 
Q 1506 409 1894 409 
Q 2359 409 2629 706 
Q 2900 1003 2900 1516 
L 2900 3500 
L 3475 3500 
L 3475 0 
L 2900 0 
L 2900 538 
Q 2691 219 2414 64 
Q 2138 -91 1772 -91 
Q 1169 -91 856 284 
Q 544 659 544 1381 
z
M 1991 3584 
L 1991 3584 
z
" transform="scale(0.015625)"/>
      <path id="DejaVuSans-62" d="M 3116 1747 
Q 3116 2381 2855 2742 
Q 2594 3103 2138 3103 
Q 1681 3103 1420 2742 
Q 1159 2381 1159 1747 
Q 1159 1113 1420 752 
Q 1681 391 2138 391 
Q 2594 391 2855 752 
Q 3116 1113 3116 1747 
z
M 1159 2969 
Q 1341 3281 1617 3432 
Q 1894 3584 2278 3584 
Q 2916 3584 3314 3078 
Q 3713 2572 3713 1747 
Q 3713 922 3314 415 
Q 2916 -91 2278 -91 
Q 1894 -91 1617 61 
Q 1341 213 1159 525 
L 1159 0 
L 581 0 
L 581 4863 
L 1159 4863 
L 1159 2969 
z
" transform="scale(0.015625)"/>
      <path id="DejaVuSans-63" d="M 3122 3366 
L 3122 2828 
Q 2878 2963 2633 3030 
Q 2388 3097 2138 3097 
Q 1578 3097 1268 2742 
Q 959 2388 959 1747 
Q 959 1106 1268 751 
Q 1578 397 2138 397 
Q 2388 397 2633 464 
Q 2878 531 3122 666 
L 3122 134 
Q 2881 22 2623 -34 
Q 2366 -91 2075 -91 
Q 1284 -91 818 406 
Q 353 903 353 1747 
Q 353 2603 823 3093 
Q 1294 3584 2113 3584 
Q 2378 3584 2631 3529 
Q 2884 3475 3122 3366 
z
" transform="scale(0.015625)"/>
      <path id="DejaVuSans-72" d="M 2631 2963 
Q 2534 3019 2420 3045 
Q 2306 3072 2169 3072 
Q 1681 3072 1420 2755 
Q 1159 2438 1159 1844 
L 1159 0 
L 581 0 
L 581 3500 
L 1159 3500 
L 1159 2956 
Q 1341 3275 1631 3429 
Q 1922 3584 2338 3584 
Q 2397 3584 2469 3576 
Q 2541 3569 2628 3553 
L 2631 2963 
z
" transform="scale(0.015625)"/>
      <path id="DejaVuSans-69" d="M 603 3500 
L 1178 3500 
L 1178 0 
L 603 0 
L 603 3500 
z
M 603 4863 
L 1178 4863 
L 1178 4134 
L 603 4134 
L 603 4863 
z
" transform="scale(0.015625)"/>
      <path id="DejaVuSans-20" transform="scale(0.015625)"/>
      <path id="DejaVuSans-68" d="M 3513 2113 
L 3513 0 
L 2938 0 
L 2938 2094 
Q 2938 2591 2744 2837 
Q 2550 3084 2163 3084 
Q 1697 3084 1428 2787 
Q 1159 2491 1159 1978 
L 1159 0 
L 581 0 
L 581 4863 
L 1159 4863 
L 1159 2956 
Q 1366 3272 1645 3428 
Q 1925 3584 2291 3584 
Q 2894 3584 3203 3211 
Q 3513 2838 3513 2113 
z
" transform="scale(0.015625)"/>
      <path id="DejaVuSans-6f" d="M 1959 3097 
Q 1497 3097 1228 2736 
Q 959 2375 959 1747 
Q 959 1119 1226 758 
Q 1494 397 1959 397 
Q 2419 397 2687 759 
Q 2956 1122 2956 1747 
Q 2956 2369 2687 2733 
Q 2419 3097 1959 3097 
z
M 1959 3584 
Q 2709 3584 3137 3096 
Q 3566 2609 3566 1747 
Q 3566 888 3137 398 
Q 2709 -91 1959 -91 
Q 1206 -91 779 398 
Q 353 888 353 1747 
Q 353 2609 779 3096 
Q 1206 3584 1959 3584 
z
" transform="scale(0.015625)"/>
      <path id="DejaVuSans-79" d="M 2059 -325 
Q 1816 -950 1584 -1140 
Q 1353 -1331 966 -1331 
L 506 -1331 
L 506 -850 
L 844 -850 
Q 1081 -850 1212 -737 
Q 1344 -625 1503 -206 
L 1606 56 
L 191 3500 
L 800 3500 
L 1894 763 
L 2988 3500 
L 3597 3500 
L 2059 -325 
z
" transform="scale(0.015625)"/>
     </defs>
     <use xlink:href="#DejaVuSans-67"/>
     <use xlink:href="#DejaVuSans-65" x="63.476562"/>
     <use xlink:href="#DejaVuSans-74" x="125"/>
     <use xlink:href="#DejaVuSans-5f" x="164.208984"/>
     <use xlink:href="#DejaVuSans-73" x="214.208984"/>
     <use xlink:href="#DejaVuSans-75" x="266.308594"/>
     <use xlink:href="#DejaVuSans-62" x="329.6875"/>
     <use xlink:href="#DejaVuSans-73" x="393.164062"/>
     <use xlink:href="#DejaVuSans-63" x="445.263672"/>
     <use xlink:href="#DejaVuSans-72" x="500.244141"/>
     <use xlink:href="#DejaVuSans-69" x="541.357422"/>
     <use xlink:href="#DejaVuSans-62" x="569.140625"/>
     <use xlink:href="#DejaVuSans-65" x="632.617188"/>
     <use xlink:href="#DejaVuSans-20" x="694.140625"/>
     <use xlink:href="#DejaVuSans-68" x="725.927734"/>
     <use xlink:href="#DejaVuSans-69" x="789.306641"/>
     <use xlink:href="#DejaVuSans-73" x="817.089844"/>
     <use xlink:href="#DejaVuSans-74" x="869.189453"/>
     <use xlink:href="#DejaVuSans-6f" x="908.398438"/>
     <use xlink:href="#DejaVuSans-72" x="969.580078"/>
     <use xlink:href="#DejaVuSans-79" x="1010.693359"/>
    </g>
   </g>
   <g id="legend_1">
    <g id="line2d_37">
     <path d="M 815.08 328.498438 
L 825.08 328.498438 
L 835.08 328.498438 
" style="fill: none; stroke: #1f77b4; stroke-width: 1.5; stroke-linecap: square"/>
    </g>
    <g id="text_19">
     <!-- star -->
     <g style="fill: #a9a9a9" transform="translate(843.08 331.998438) scale(0.1 -0.1)">
      <defs>
       <path id="DejaVuSans-61" d="M 2194 1759 
Q 1497 1759 1228 1600 
Q 959 1441 959 1056 
Q 959 750 1161 570 
Q 1363 391 1709 391 
Q 2188 391 2477 730 
Q 2766 1069 2766 1631 
L 2766 1759 
L 2194 1759 
z
M 3341 1997 
L 3341 0 
L 2766 0 
L 2766 531 
Q 2569 213 2275 61 
Q 1981 -91 1556 -91 
Q 1019 -91 701 211 
Q 384 513 384 1019 
Q 384 1609 779 1909 
Q 1175 2209 1959 2209 
L 2766 2209 
L 2766 2266 
Q 2766 2663 2505 2880 
Q 2244 3097 1772 3097 
Q 1472 3097 1187 3025 
Q 903 2953 641 2809 
L 641 3341 
Q 956 3463 1253 3523 
Q 1550 3584 1831 3584 
Q 2591 3584 2966 3190 
Q 3341 2797 3341 1997 
z
" transform="scale(0.015625)"/>
      </defs>
      <use xlink:href="#DejaVuSans-73"/>
      <use xlink:href="#DejaVuSans-74" x="52.099609"/>
      <use xlink:href="#DejaVuSans-61" x="91.308594"/>
      <use xlink:href="#DejaVuSans-72" x="152.587891"/>
     </g>
    </g>
    <g id="line2d_38">
     <path d="M 815.08 343.176562 
L 825.08 343.176562 
L 835.08 343.176562 
" style="fill: none; stroke: #ff7f0e; stroke-width: 1.5; stroke-linecap: square"/>
    </g>
    <g id="text_20">
     <!-- fork -->
     <g style="fill: #a9a9a9" transform="translate(843.08 346.676562) scale(0.1 -0.1)">
      <defs>
       <path id="DejaVuSans-66" d="M 2375 4863 
L 2375 4384 
L 1825 4384 
Q 1516 4384 1395 4259 
Q 1275 4134 1275 3809 
L 1275 3500 
L 2222 3500 
L 2222 3053 
L 1275 3053 
L 1275 0 
L 697 0 
L 697 3053 
L 147 3053 
L 147 3500 
L 697 3500 
L 697 3744 
Q 697 4328 969 4595 
Q 1241 4863 1831 4863 
L 2375 4863 
z
" transform="scale(0.015625)"/>
       <path id="DejaVuSans-6b" d="M 581 4863 
L 1159 4863 
L 1159 1991 
L 2875 3500 
L 3609 3500 
L 1753 1863 
L 3688 0 
L 2938 0 
L 1159 1709 
L 1159 0 
L 581 0 
L 581 4863 
z
" transform="scale(0.015625)"/>
      </defs>
      <use xlink:href="#DejaVuSans-66"/>
      <use xlink:href="#DejaVuSans-6f" x="35.205078"/>
      <use xlink:href="#DejaVuSans-72" x="96.386719"/>
      <use xlink:href="#DejaVuSans-6b" x="137.5"/>
     </g>
    </g>
   </g>
  </g>
 </g>
 <defs>
  <clipPath id="p016b9f3059">
   <rect x="108" y="43.2" width="669.6" height="277.2"/>
  </clipPath>
 </defs>
</svg>
