<?xml version="1.0" encoding="utf-8" standalone="no"?>
<!DOCTYPE svg PUBLIC "-//W3C//DTD SVG 1.1//EN"
  "http://www.w3.org/Graphics/SVG/1.1/DTD/svg11.dtd">
<svg xmlns:xlink="http://www.w3.org/1999/xlink" width="864pt" height="360pt" viewBox="0 0 864 360" xmlns="http://www.w3.org/2000/svg" version="1.1">
 <metadata>
  <rdf:RDF xmlns:dc="http://purl.org/dc/elements/1.1/" xmlns:cc="http://creativecommons.org/ns#" xmlns:rdf="http://www.w3.org/1999/02/22-rdf-syntax-ns#">
   <cc:Work>
    <dc:type rdf:resource="http://purl.org/dc/dcmitype/StillImage"/>
    <dc:date>2024-04-29T08:11:10.813692</dc:date>
    <dc:format>image/svg+xml</dc:format>
    <dc:creator>
     <cc:Agent>
      <dc:title>Matplotlib v3.8.4, https://matplotlib.org/</dc:title>
     </cc:Agent>
    </dc:creator>
   </cc:Work>
  </rdf:RDF>
 </metadata>
 <defs>
  <style type="text/css">*{stroke-linejoin: round; stroke-linecap: butt}</style>
 </defs>
 <g id="figure_1">
  <g id="patch_1">
   <path d="M 0 360 
L 864 360 
L 864 0 
L 0 0 
L 0 360 
z
" style="fill: none; opacity: 0"/>
  </g>
  <g id="axes_1">
   <g id="patch_2">
    <path d="M 108 320.4 
L 777.6 320.4 
L 777.6 43.2 
L 108 43.2 
L 108 320.4 
z
" style="fill: none; opacity: 0"/>
   </g>
   <g id="matplotlib.axis_1">
    <g id="xtick_1">
     <g id="line2d_1">
      <path d="M 161.941674 320.4 
L 161.941674 43.2 
" clip-path="url(#pc46a3eb135)" style="fill: none; stroke-dasharray: 5.12,1.28,0.8,1.28; stroke-dashoffset: 0; stroke: #b0b0b0; stroke-width: 0.8"/>
     </g>
     <g id="line2d_2">
      <defs>
       <path id="mf1e96b0685" d="M 0 0 
L 0 3.5 
" style="stroke: #a9a9a9; stroke-width: 0.8"/>
      </defs>
      <g>
       <use xlink:href="#mf1e96b0685" x="161.941674" y="320.4" style="fill: #a9a9a9; stroke: #a9a9a9; stroke-width: 0.8"/>
      </g>
     </g>
     <g id="text_1">
      <!-- 2021-09 -->
      <g style="fill: #a9a9a9" transform="translate(141.050268 334.998438) scale(0.1 -0.1)">
       <defs>
        <path id="DejaVuSans-32" d="M 1228 531 
L 3431 531 
L 3431 0 
L 469 0 
L 469 531 
Q 828 903 1448 1529 
Q 2069 2156 2228 2338 
Q 2531 2678 2651 2914 
Q 2772 3150 2772 3378 
Q 2772 3750 2511 3984 
Q 2250 4219 1831 4219 
Q 1534 4219 1204 4116 
Q 875 4013 500 3803 
L 500 4441 
Q 881 4594 1212 4672 
Q 1544 4750 1819 4750 
Q 2544 4750 2975 4387 
Q 3406 4025 3406 3419 
Q 3406 3131 3298 2873 
Q 3191 2616 2906 2266 
Q 2828 2175 2409 1742 
Q 1991 1309 1228 531 
z
" transform="scale(0.015625)"/>
        <path id="DejaVuSans-30" d="M 2034 4250 
Q 1547 4250 1301 3770 
Q 1056 3291 1056 2328 
Q 1056 1369 1301 889 
Q 1547 409 2034 409 
Q 2525 409 2770 889 
Q 3016 1369 3016 2328 
Q 3016 3291 2770 3770 
Q 2525 4250 2034 4250 
z
M 2034 4750 
Q 2819 4750 3233 4129 
Q 3647 3509 3647 2328 
Q 3647 1150 3233 529 
Q 2819 -91 2034 -91 
Q 1250 -91 836 529 
Q 422 1150 422 2328 
Q 422 3509 836 4129 
Q 1250 4750 2034 4750 
z
" transform="scale(0.015625)"/>
        <path id="DejaVuSans-31" d="M 794 531 
L 1825 531 
L 1825 4091 
L 703 3866 
L 703 4441 
L 1819 4666 
L 2450 4666 
L 2450 531 
L 3481 531 
L 3481 0 
L 794 0 
L 794 531 
z
" transform="scale(0.015625)"/>
        <path id="DejaVuSans-2d" d="M 313 2009 
L 1997 2009 
L 1997 1497 
L 313 1497 
L 313 2009 
z
" transform="scale(0.015625)"/>
        <path id="DejaVuSans-39" d="M 703 97 
L 703 672 
Q 941 559 1184 500 
Q 1428 441 1663 441 
Q 2288 441 2617 861 
Q 2947 1281 2994 2138 
Q 2813 1869 2534 1725 
Q 2256 1581 1919 1581 
Q 1219 1581 811 2004 
Q 403 2428 403 3163 
Q 403 3881 828 4315 
Q 1253 4750 1959 4750 
Q 2769 4750 3195 4129 
Q 3622 3509 3622 2328 
Q 3622 1225 3098 567 
Q 2575 -91 1691 -91 
Q 1453 -91 1209 -44 
Q 966 3 703 97 
z
M 1959 2075 
Q 2384 2075 2632 2365 
Q 2881 2656 2881 3163 
Q 2881 3666 2632 3958 
Q 2384 4250 1959 4250 
Q 1534 4250 1286 3958 
Q 1038 3666 1038 3163 
Q 1038 2656 1286 2365 
Q 1534 2075 1959 2075 
z
" transform="scale(0.015625)"/>
       </defs>
       <use xlink:href="#DejaVuSans-32"/>
       <use xlink:href="#DejaVuSans-30" x="63.623047"/>
       <use xlink:href="#DejaVuSans-32" x="127.246094"/>
       <use xlink:href="#DejaVuSans-31" x="190.869141"/>
       <use xlink:href="#DejaVuSans-2d" x="254.492188"/>
       <use xlink:href="#DejaVuSans-30" x="290.576172"/>
       <use xlink:href="#DejaVuSans-39" x="354.199219"/>
      </g>
     </g>
    </g>
    <g id="xtick_2">
     <g id="line2d_3">
      <path d="M 235.471107 320.4 
L 235.471107 43.2 
" clip-path="url(#pc46a3eb135)" style="fill: none; stroke-dasharray: 5.12,1.28,0.8,1.28; stroke-dashoffset: 0; stroke: #b0b0b0; stroke-width: 0.8"/>
     </g>
     <g id="line2d_4">
      <g>
       <use xlink:href="#mf1e96b0685" x="235.471107" y="320.4" style="fill: #a9a9a9; stroke: #a9a9a9; stroke-width: 0.8"/>
      </g>
     </g>
     <g id="text_2">
      <!-- 2022-01 -->
      <g style="fill: #a9a9a9" transform="translate(214.579701 334.998438) scale(0.1 -0.1)">
       <use xlink:href="#DejaVuSans-32"/>
       <use xlink:href="#DejaVuSans-30" x="63.623047"/>
       <use xlink:href="#DejaVuSans-32" x="127.246094"/>
       <use xlink:href="#DejaVuSans-32" x="190.869141"/>
       <use xlink:href="#DejaVuSans-2d" x="254.492188"/>
       <use xlink:href="#DejaVuSans-30" x="290.576172"/>
       <use xlink:href="#DejaVuSans-31" x="354.199219"/>
      </g>
     </g>
    </g>
    <g id="xtick_3">
     <g id="line2d_5">
      <path d="M 307.79514 320.4 
L 307.79514 43.2 
" clip-path="url(#pc46a3eb135)" style="fill: none; stroke-dasharray: 5.12,1.28,0.8,1.28; stroke-dashoffset: 0; stroke: #b0b0b0; stroke-width: 0.8"/>
     </g>
     <g id="line2d_6">
      <g>
       <use xlink:href="#mf1e96b0685" x="307.79514" y="320.4" style="fill: #a9a9a9; stroke: #a9a9a9; stroke-width: 0.8"/>
      </g>
     </g>
     <g id="text_3">
      <!-- 2022-05 -->
      <g style="fill: #a9a9a9" transform="translate(286.903733 334.998438) scale(0.1 -0.1)">
       <defs>
        <path id="DejaVuSans-35" d="M 691 4666 
L 3169 4666 
L 3169 4134 
L 1269 4134 
L 1269 2991 
Q 1406 3038 1543 3061 
Q 1681 3084 1819 3084 
Q 2600 3084 3056 2656 
Q 3513 2228 3513 1497 
Q 3513 744 3044 326 
Q 2575 -91 1722 -91 
Q 1428 -91 1123 -41 
Q 819 9 494 109 
L 494 744 
Q 775 591 1075 516 
Q 1375 441 1709 441 
Q 2250 441 2565 725 
Q 2881 1009 2881 1497 
Q 2881 1984 2565 2268 
Q 2250 2553 1709 2553 
Q 1456 2553 1204 2497 
Q 953 2441 691 2322 
L 691 4666 
z
" transform="scale(0.015625)"/>
       </defs>
       <use xlink:href="#DejaVuSans-32"/>
       <use xlink:href="#DejaVuSans-30" x="63.623047"/>
       <use xlink:href="#DejaVuSans-32" x="127.246094"/>
       <use xlink:href="#DejaVuSans-32" x="190.869141"/>
       <use xlink:href="#DejaVuSans-2d" x="254.492188"/>
       <use xlink:href="#DejaVuSans-30" x="290.576172"/>
       <use xlink:href="#DejaVuSans-35" x="354.199219"/>
      </g>
     </g>
    </g>
    <g id="xtick_4">
     <g id="line2d_7">
      <path d="M 381.927273 320.4 
L 381.927273 43.2 
" clip-path="url(#pc46a3eb135)" style="fill: none; stroke-dasharray: 5.12,1.28,0.8,1.28; stroke-dashoffset: 0; stroke: #b0b0b0; stroke-width: 0.8"/>
     </g>
     <g id="line2d_8">
      <g>
       <use xlink:href="#mf1e96b0685" x="381.927273" y="320.4" style="fill: #a9a9a9; stroke: #a9a9a9; stroke-width: 0.8"/>
      </g>
     </g>
     <g id="text_4">
      <!-- 2022-09 -->
      <g style="fill: #a9a9a9" transform="translate(361.035866 334.998438) scale(0.1 -0.1)">
       <use xlink:href="#DejaVuSans-32"/>
       <use xlink:href="#DejaVuSans-30" x="63.623047"/>
       <use xlink:href="#DejaVuSans-32" x="127.246094"/>
       <use xlink:href="#DejaVuSans-32" x="190.869141"/>
       <use xlink:href="#DejaVuSans-2d" x="254.492188"/>
       <use xlink:href="#DejaVuSans-30" x="290.576172"/>
       <use xlink:href="#DejaVuSans-39" x="354.199219"/>
      </g>
     </g>
    </g>
    <g id="xtick_5">
     <g id="line2d_9">
      <path d="M 455.456706 320.4 
L 455.456706 43.2 
" clip-path="url(#pc46a3eb135)" style="fill: none; stroke-dasharray: 5.12,1.28,0.8,1.28; stroke-dashoffset: 0; stroke: #b0b0b0; stroke-width: 0.8"/>
     </g>
     <g id="line2d_10">
      <g>
       <use xlink:href="#mf1e96b0685" x="455.456706" y="320.4" style="fill: #a9a9a9; stroke: #a9a9a9; stroke-width: 0.8"/>
      </g>
     </g>
     <g id="text_5">
      <!-- 2023-01 -->
      <g style="fill: #a9a9a9" transform="translate(434.565299 334.998438) scale(0.1 -0.1)">
       <defs>
        <path id="DejaVuSans-33" d="M 2597 2516 
Q 3050 2419 3304 2112 
Q 3559 1806 3559 1356 
Q 3559 666 3084 287 
Q 2609 -91 1734 -91 
Q 1441 -91 1130 -33 
Q 819 25 488 141 
L 488 750 
Q 750 597 1062 519 
Q 1375 441 1716 441 
Q 2309 441 2620 675 
Q 2931 909 2931 1356 
Q 2931 1769 2642 2001 
Q 2353 2234 1838 2234 
L 1294 2234 
L 1294 2753 
L 1863 2753 
Q 2328 2753 2575 2939 
Q 2822 3125 2822 3475 
Q 2822 3834 2567 4026 
Q 2313 4219 1838 4219 
Q 1578 4219 1281 4162 
Q 984 4106 628 3988 
L 628 4550 
Q 988 4650 1302 4700 
Q 1616 4750 1894 4750 
Q 2613 4750 3031 4423 
Q 3450 4097 3450 3541 
Q 3450 3153 3228 2886 
Q 3006 2619 2597 2516 
z
" transform="scale(0.015625)"/>
       </defs>
       <use xlink:href="#DejaVuSans-32"/>
       <use xlink:href="#DejaVuSans-30" x="63.623047"/>
       <use xlink:href="#DejaVuSans-32" x="127.246094"/>
       <use xlink:href="#DejaVuSans-33" x="190.869141"/>
       <use xlink:href="#DejaVuSans-2d" x="254.492188"/>
       <use xlink:href="#DejaVuSans-30" x="290.576172"/>
       <use xlink:href="#DejaVuSans-31" x="354.199219"/>
      </g>
     </g>
    </g>
    <g id="xtick_6">
     <g id="line2d_11">
      <path d="M 527.780738 320.4 
L 527.780738 43.2 
" clip-path="url(#pc46a3eb135)" style="fill: none; stroke-dasharray: 5.12,1.28,0.8,1.28; stroke-dashoffset: 0; stroke: #b0b0b0; stroke-width: 0.8"/>
     </g>
     <g id="line2d_12">
      <g>
       <use xlink:href="#mf1e96b0685" x="527.780738" y="320.4" style="fill: #a9a9a9; stroke: #a9a9a9; stroke-width: 0.8"/>
      </g>
     </g>
     <g id="text_6">
      <!-- 2023-05 -->
      <g style="fill: #a9a9a9" transform="translate(506.889332 334.998438) scale(0.1 -0.1)">
       <use xlink:href="#DejaVuSans-32"/>
       <use xlink:href="#DejaVuSans-30" x="63.623047"/>
       <use xlink:href="#DejaVuSans-32" x="127.246094"/>
       <use xlink:href="#DejaVuSans-33" x="190.869141"/>
       <use xlink:href="#DejaVuSans-2d" x="254.492188"/>
       <use xlink:href="#DejaVuSans-30" x="290.576172"/>
       <use xlink:href="#DejaVuSans-35" x="354.199219"/>
      </g>
     </g>
    </g>
    <g id="xtick_7">
     <g id="line2d_13">
      <path d="M 601.912871 320.4 
L 601.912871 43.2 
" clip-path="url(#pc46a3eb135)" style="fill: none; stroke-dasharray: 5.12,1.28,0.8,1.28; stroke-dashoffset: 0; stroke: #b0b0b0; stroke-width: 0.8"/>
     </g>
     <g id="line2d_14">
      <g>
       <use xlink:href="#mf1e96b0685" x="601.912871" y="320.4" style="fill: #a9a9a9; stroke: #a9a9a9; stroke-width: 0.8"/>
      </g>
     </g>
     <g id="text_7">
      <!-- 2023-09 -->
      <g style="fill: #a9a9a9" transform="translate(581.021465 334.998438) scale(0.1 -0.1)">
       <use xlink:href="#DejaVuSans-32"/>
       <use xlink:href="#DejaVuSans-30" x="63.623047"/>
       <use xlink:href="#DejaVuSans-32" x="127.246094"/>
       <use xlink:href="#DejaVuSans-33" x="190.869141"/>
       <use xlink:href="#DejaVuSans-2d" x="254.492188"/>
       <use xlink:href="#DejaVuSans-30" x="290.576172"/>
       <use xlink:href="#DejaVuSans-39" x="354.199219"/>
      </g>
     </g>
    </g>
    <g id="xtick_8">
     <g id="line2d_15">
      <path d="M 675.442304 320.4 
L 675.442304 43.2 
" clip-path="url(#pc46a3eb135)" style="fill: none; stroke-dasharray: 5.12,1.28,0.8,1.28; stroke-dashoffset: 0; stroke: #b0b0b0; stroke-width: 0.8"/>
     </g>
     <g id="line2d_16">
      <g>
       <use xlink:href="#mf1e96b0685" x="675.442304" y="320.4" style="fill: #a9a9a9; stroke: #a9a9a9; stroke-width: 0.8"/>
      </g>
     </g>
     <g id="text_8">
      <!-- 2024-01 -->
      <g style="fill: #a9a9a9" transform="translate(654.550898 334.998438) scale(0.1 -0.1)">
       <defs>
        <path id="DejaVuSans-34" d="M 2419 4116 
L 825 1625 
L 2419 1625 
L 2419 4116 
z
M 2253 4666 
L 3047 4666 
L 3047 1625 
L 3713 1625 
L 3713 1100 
L 3047 1100 
L 3047 0 
L 2419 0 
L 2419 1100 
L 313 1100 
L 313 1709 
L 2253 4666 
z
" transform="scale(0.015625)"/>
       </defs>
       <use xlink:href="#DejaVuSans-32"/>
       <use xlink:href="#DejaVuSans-30" x="63.623047"/>
       <use xlink:href="#DejaVuSans-32" x="127.246094"/>
       <use xlink:href="#DejaVuSans-34" x="190.869141"/>
       <use xlink:href="#DejaVuSans-2d" x="254.492188"/>
       <use xlink:href="#DejaVuSans-30" x="290.576172"/>
       <use xlink:href="#DejaVuSans-31" x="354.199219"/>
      </g>
     </g>
    </g>
    <g id="xtick_9">
     <g id="line2d_17">
      <path d="M 748.369037 320.4 
L 748.369037 43.2 
" clip-path="url(#pc46a3eb135)" style="fill: none; stroke-dasharray: 5.12,1.28,0.8,1.28; stroke-dashoffset: 0; stroke: #b0b0b0; stroke-width: 0.8"/>
     </g>
     <g id="line2d_18">
      <g>
       <use xlink:href="#mf1e96b0685" x="748.369037" y="320.4" style="fill: #a9a9a9; stroke: #a9a9a9; stroke-width: 0.8"/>
      </g>
     </g>
     <g id="text_9">
      <!-- 2024-05 -->
      <g style="fill: #a9a9a9" transform="translate(727.477631 334.998438) scale(0.1 -0.1)">
       <use xlink:href="#DejaVuSans-32"/>
       <use xlink:href="#DejaVuSans-30" x="63.623047"/>
       <use xlink:href="#DejaVuSans-32" x="127.246094"/>
       <use xlink:href="#DejaVuSans-34" x="190.869141"/>
       <use xlink:href="#DejaVuSans-2d" x="254.492188"/>
       <use xlink:href="#DejaVuSans-30" x="290.576172"/>
       <use xlink:href="#DejaVuSans-35" x="354.199219"/>
      </g>
     </g>
    </g>
   </g>
   <g id="matplotlib.axis_2">
    <g id="ytick_1">
     <g id="line2d_19">
      <path d="M 108 307.841993 
L 777.6 307.841993 
" clip-path="url(#pc46a3eb135)" style="fill: none; stroke-dasharray: 5.12,1.28,0.8,1.28; stroke-dashoffset: 0; stroke: #b0b0b0; stroke-width: 0.8"/>
     </g>
     <g id="line2d_20">
      <defs>
       <path id="mfdad10b9f4" d="M 0 0 
L -3.5 0 
" style="stroke: #a9a9a9; stroke-width: 0.8"/>
      </defs>
      <g>
       <use xlink:href="#mfdad10b9f4" x="108" y="307.841993" style="fill: #a9a9a9; stroke: #a9a9a9; stroke-width: 0.8"/>
      </g>
     </g>
     <g id="text_10">
      <!-- 0 -->
      <g style="fill: #a9a9a9" transform="translate(94.6375 311.641212) scale(0.1 -0.1)">
       <use xlink:href="#DejaVuSans-30"/>
      </g>
     </g>
    </g>
    <g id="ytick_2">
     <g id="line2d_21">
      <path d="M 108 274.247592 
L 777.6 274.247592 
" clip-path="url(#pc46a3eb135)" style="fill: none; stroke-dasharray: 5.12,1.28,0.8,1.28; stroke-dashoffset: 0; stroke: #b0b0b0; stroke-width: 0.8"/>
     </g>
     <g id="line2d_22">
      <g>
       <use xlink:href="#mfdad10b9f4" x="108" y="274.247592" style="fill: #a9a9a9; stroke: #a9a9a9; stroke-width: 0.8"/>
      </g>
     </g>
     <g id="text_11">
      <!-- 800 -->
      <g style="fill: #a9a9a9" transform="translate(81.9125 278.046811) scale(0.1 -0.1)">
       <defs>
        <path id="DejaVuSans-38" d="M 2034 2216 
Q 1584 2216 1326 1975 
Q 1069 1734 1069 1313 
Q 1069 891 1326 650 
Q 1584 409 2034 409 
Q 2484 409 2743 651 
Q 3003 894 3003 1313 
Q 3003 1734 2745 1975 
Q 2488 2216 2034 2216 
z
M 1403 2484 
Q 997 2584 770 2862 
Q 544 3141 544 3541 
Q 544 4100 942 4425 
Q 1341 4750 2034 4750 
Q 2731 4750 3128 4425 
Q 3525 4100 3525 3541 
Q 3525 3141 3298 2862 
Q 3072 2584 2669 2484 
Q 3125 2378 3379 2068 
Q 3634 1759 3634 1313 
Q 3634 634 3220 271 
Q 2806 -91 2034 -91 
Q 1263 -91 848 271 
Q 434 634 434 1313 
Q 434 1759 690 2068 
Q 947 2378 1403 2484 
z
M 1172 3481 
Q 1172 3119 1398 2916 
Q 1625 2713 2034 2713 
Q 2441 2713 2670 2916 
Q 2900 3119 2900 3481 
Q 2900 3844 2670 4047 
Q 2441 4250 2034 4250 
Q 1625 4250 1398 4047 
Q 1172 3844 1172 3481 
z
" transform="scale(0.015625)"/>
       </defs>
       <use xlink:href="#DejaVuSans-38"/>
       <use xlink:href="#DejaVuSans-30" x="63.623047"/>
       <use xlink:href="#DejaVuSans-30" x="127.246094"/>
      </g>
     </g>
    </g>
    <g id="ytick_3">
     <g id="line2d_23">
      <path d="M 108 240.653191 
L 777.6 240.653191 
" clip-path="url(#pc46a3eb135)" style="fill: none; stroke-dasharray: 5.12,1.28,0.8,1.28; stroke-dashoffset: 0; stroke: #b0b0b0; stroke-width: 0.8"/>
     </g>
     <g id="line2d_24">
      <g>
       <use xlink:href="#mfdad10b9f4" x="108" y="240.653191" style="fill: #a9a9a9; stroke: #a9a9a9; stroke-width: 0.8"/>
      </g>
     </g>
     <g id="text_12">
      <!-- 1600 -->
      <g style="fill: #a9a9a9" transform="translate(75.55 244.45241) scale(0.1 -0.1)">
       <defs>
        <path id="DejaVuSans-36" d="M 2113 2584 
Q 1688 2584 1439 2293 
Q 1191 2003 1191 1497 
Q 1191 994 1439 701 
Q 1688 409 2113 409 
Q 2538 409 2786 701 
Q 3034 994 3034 1497 
Q 3034 2003 2786 2293 
Q 2538 2584 2113 2584 
z
M 3366 4563 
L 3366 3988 
Q 3128 4100 2886 4159 
Q 2644 4219 2406 4219 
Q 1781 4219 1451 3797 
Q 1122 3375 1075 2522 
Q 1259 2794 1537 2939 
Q 1816 3084 2150 3084 
Q 2853 3084 3261 2657 
Q 3669 2231 3669 1497 
Q 3669 778 3244 343 
Q 2819 -91 2113 -91 
Q 1303 -91 875 529 
Q 447 1150 447 2328 
Q 447 3434 972 4092 
Q 1497 4750 2381 4750 
Q 2619 4750 2861 4703 
Q 3103 4656 3366 4563 
z
" transform="scale(0.015625)"/>
       </defs>
       <use xlink:href="#DejaVuSans-31"/>
       <use xlink:href="#DejaVuSans-36" x="63.623047"/>
       <use xlink:href="#DejaVuSans-30" x="127.246094"/>
       <use xlink:href="#DejaVuSans-30" x="190.869141"/>
      </g>
     </g>
    </g>
    <g id="ytick_4">
     <g id="line2d_25">
      <path d="M 108 207.05879 
L 777.6 207.05879 
" clip-path="url(#pc46a3eb135)" style="fill: none; stroke-dasharray: 5.12,1.28,0.8,1.28; stroke-dashoffset: 0; stroke: #b0b0b0; stroke-width: 0.8"/>
     </g>
     <g id="line2d_26">
      <g>
       <use xlink:href="#mfdad10b9f4" x="108" y="207.05879" style="fill: #a9a9a9; stroke: #a9a9a9; stroke-width: 0.8"/>
      </g>
     </g>
     <g id="text_13">
      <!-- 2400 -->
      <g style="fill: #a9a9a9" transform="translate(75.55 210.858009) scale(0.1 -0.1)">
       <use xlink:href="#DejaVuSans-32"/>
       <use xlink:href="#DejaVuSans-34" x="63.623047"/>
       <use xlink:href="#DejaVuSans-30" x="127.246094"/>
       <use xlink:href="#DejaVuSans-30" x="190.869141"/>
      </g>
     </g>
    </g>
    <g id="ytick_5">
     <g id="line2d_27">
      <path d="M 108 173.464389 
L 777.6 173.464389 
" clip-path="url(#pc46a3eb135)" style="fill: none; stroke-dasharray: 5.12,1.28,0.8,1.28; stroke-dashoffset: 0; stroke: #b0b0b0; stroke-width: 0.8"/>
     </g>
     <g id="line2d_28">
      <g>
       <use xlink:href="#mfdad10b9f4" x="108" y="173.464389" style="fill: #a9a9a9; stroke: #a9a9a9; stroke-width: 0.8"/>
      </g>
     </g>
     <g id="text_14">
      <!-- 3200 -->
      <g style="fill: #a9a9a9" transform="translate(75.55 177.263608) scale(0.1 -0.1)">
       <use xlink:href="#DejaVuSans-33"/>
       <use xlink:href="#DejaVuSans-32" x="63.623047"/>
       <use xlink:href="#DejaVuSans-30" x="127.246094"/>
       <use xlink:href="#DejaVuSans-30" x="190.869141"/>
      </g>
     </g>
    </g>
    <g id="ytick_6">
     <g id="line2d_29">
      <path d="M 108 139.869988 
L 777.6 139.869988 
" clip-path="url(#pc46a3eb135)" style="fill: none; stroke-dasharray: 5.12,1.28,0.8,1.28; stroke-dashoffset: 0; stroke: #b0b0b0; stroke-width: 0.8"/>
     </g>
     <g id="line2d_30">
      <g>
       <use xlink:href="#mfdad10b9f4" x="108" y="139.869988" style="fill: #a9a9a9; stroke: #a9a9a9; stroke-width: 0.8"/>
      </g>
     </g>
     <g id="text_15">
      <!-- 4000 -->
      <g style="fill: #a9a9a9" transform="translate(75.55 143.669207) scale(0.1 -0.1)">
       <use xlink:href="#DejaVuSans-34"/>
       <use xlink:href="#DejaVuSans-30" x="63.623047"/>
       <use xlink:href="#DejaVuSans-30" x="127.246094"/>
       <use xlink:href="#DejaVuSans-30" x="190.869141"/>
      </g>
     </g>
    </g>
    <g id="ytick_7">
     <g id="line2d_31">
      <path d="M 108 106.275587 
L 777.6 106.275587 
" clip-path="url(#pc46a3eb135)" style="fill: none; stroke-dasharray: 5.12,1.28,0.8,1.28; stroke-dashoffset: 0; stroke: #b0b0b0; stroke-width: 0.8"/>
     </g>
     <g id="line2d_32">
      <g>
       <use xlink:href="#mfdad10b9f4" x="108" y="106.275587" style="fill: #a9a9a9; stroke: #a9a9a9; stroke-width: 0.8"/>
      </g>
     </g>
     <g id="text_16">
      <!-- 4800 -->
      <g style="fill: #a9a9a9" transform="translate(75.55 110.074806) scale(0.1 -0.1)">
       <use xlink:href="#DejaVuSans-34"/>
       <use xlink:href="#DejaVuSans-38" x="63.623047"/>
       <use xlink:href="#DejaVuSans-30" x="127.246094"/>
       <use xlink:href="#DejaVuSans-30" x="190.869141"/>
      </g>
     </g>
    </g>
    <g id="ytick_8">
     <g id="line2d_33">
      <path d="M 108 72.681186 
L 777.6 72.681186 
" clip-path="url(#pc46a3eb135)" style="fill: none; stroke-dasharray: 5.12,1.28,0.8,1.28; stroke-dashoffset: 0; stroke: #b0b0b0; stroke-width: 0.8"/>
     </g>
     <g id="line2d_34">
      <g>
       <use xlink:href="#mfdad10b9f4" x="108" y="72.681186" style="fill: #a9a9a9; stroke: #a9a9a9; stroke-width: 0.8"/>
      </g>
     </g>
     <g id="text_17">
      <!-- 5600 -->
      <g style="fill: #a9a9a9" transform="translate(75.55 76.480405) scale(0.1 -0.1)">
       <use xlink:href="#DejaVuSans-35"/>
       <use xlink:href="#DejaVuSans-36" x="63.623047"/>
       <use xlink:href="#DejaVuSans-30" x="127.246094"/>
       <use xlink:href="#DejaVuSans-30" x="190.869141"/>
      </g>
     </g>
    </g>
   </g>
   <g id="line2d_35">
    <path d="M 138.436364 307.716014 
L 142.052565 307.422063 
L 142.655266 307.170105 
L 144.463366 306.96014 
L 148.079568 306.246259 
L 151.69577 305.952308 
L 152.29847 305.658357 
L 152.90117 305.490385 
L 153.50387 304.734511 
L 154.106571 304.314581 
L 154.709271 303.012798 
L 155.311971 302.928812 
L 155.914671 302.466889 
L 157.120072 301.878987 
L 159.530873 300.031295 
L 160.736274 299.527379 
L 161.338974 299.107449 
L 163.749775 298.057624 
L 164.352475 297.133778 
L 165.557876 296.293918 
L 166.160576 295.999967 
L 172.187579 295.160107 
L 172.790279 294.866156 
L 177.009181 294.530212 
L 178.817282 294.068289 
L 184.241584 293.354408 
L 184.844284 293.018464 
L 185.446985 292.934478 
L 186.049685 292.68252 
L 187.255086 292.472555 
L 187.857786 292.430562 
L 189.063186 292.178604 
L 189.665887 292.136611 
L 192.076688 291.548709 
L 193.884788 291.380737 
L 195.090189 291.254758 
L 195.692889 291.086786 
L 196.29559 291.044793 
L 198.10369 290.498884 
L 199.309091 290.414898 
L 200.514491 290.246926 
L 201.719892 289.994968 
L 202.322592 289.826996 
L 202.925293 289.029128 
L 204.733393 288.35724 
L 206.541494 287.895317 
L 207.144194 287.601366 
L 207.746895 287.559373 
L 210.760396 286.719513 
L 211.965797 286.635527 
L 212.568497 286.551541 
L 214.376598 286.005632 
L 216.787399 285.41773 
L 217.390099 285.165772 
L 217.992799 285.081786 
L 218.5955 284.787835 
L 224.622502 283.905982 
L 227.636004 283.066122 
L 228.238704 282.688185 
L 230.649505 282.05829 
L 233.060306 280.840493 
L 234.868407 280.420563 
L 235.471107 280.336577 
L 236.073807 280.042626 
L 237.279208 279.832661 
L 238.484608 279.286752 
L 241.49811 278.530878 
L 243.306211 278.068955 
L 243.908911 277.816997 
L 244.511611 277.691018 
L 245.114311 277.43906 
L 245.717012 277.355074 
L 246.319712 277.061123 
L 246.922412 276.893151 
L 248.127813 276.809165 
L 249.333213 276.389235 
L 250.538614 276.305249 
L 251.141314 276.011298 
L 252.346715 275.843326 
L 252.949415 275.633361 
L 254.154815 275.591368 
L 256.565617 275.297417 
L 257.771017 274.709515 
L 264.40072 271.895984 
L 265.00342 271.56004 
L 265.606121 270.930145 
L 266.811521 269.166439 
L 267.414221 268.998467 
L 268.016922 268.998467 
L 269.222322 268.116614 
L 269.825023 267.948642 
L 270.427723 267.654691 
L 271.030423 267.528712 
L 271.633123 266.982803 
L 272.235824 266.814831 
L 274.043924 265.932978 
L 275.249325 264.253258 
L 275.852025 263.875321 
L 276.454725 262.867489 
L 277.057426 262.237594 
L 277.660126 261.943643 
L 278.262826 261.775671 
L 280.673627 260.347909 
L 281.879028 259.38207 
L 282.481728 259.004133 
L 283.084428 258.12228 
L 283.687129 256.778504 
L 284.289829 255.896651 
L 284.892529 255.434728 
L 285.49523 255.18277 
L 287.906031 253.083119 
L 289.111431 252.11728 
L 289.714131 251.613364 
L 290.316832 250.815497 
L 291.522232 249.765672 
L 293.933033 248.211931 
L 294.535734 247.708015 
L 295.138434 247.582036 
L 295.741134 247.330078 
L 297.549235 246.322246 
L 299.357336 245.188435 
L 301.165437 243.424729 
L 301.768137 243.046792 
L 302.370837 242.87882 
L 302.973537 242.584869 
L 304.178938 241.787002 
L 304.781638 241.451058 
L 305.384338 241.367072 
L 310.205941 238.469555 
L 312.014041 237.503716 
L 312.616742 236.957807 
L 315.027543 236.201933 
L 315.630243 235.782003 
L 316.232943 235.656024 
L 317.438344 235.236094 
L 319.246445 234.522213 
L 321.054545 233.850325 
L 322.259946 233.64036 
L 323.465347 232.590535 
L 325.273447 231.750675 
L 326.478848 231.036794 
L 327.684248 230.70085 
L 328.286949 230.322913 
L 328.889649 230.154941 
L 330.69775 229.02113 
L 333.711251 228.307249 
L 335.519352 227.257424 
L 336.122052 227.173438 
L 336.724752 226.963473 
L 337.930153 226.711515 
L 339.738254 225.367739 
L 341.546355 224.947809 
L 342.149055 224.737844 
L 342.751755 224.275921 
L 346.367957 223.100117 
L 346.970657 223.058124 
L 347.573357 222.890152 
L 348.778758 222.386236 
L 352.99766 220.916481 
L 354.20306 220.748509 
L 354.805761 220.580537 
L 355.408461 220.286586 
L 356.011161 220.160607 
L 357.819262 219.320747 
L 359.627363 218.438894 
L 360.230063 218.018964 
L 360.832763 217.850992 
L 362.640864 216.885152 
L 363.846265 216.591201 
L 365.051665 215.961306 
L 366.257066 215.625362 
L 366.859766 215.541376 
L 368.065167 214.827495 
L 368.667867 214.701516 
L 369.873267 214.1976 
L 370.475968 214.071621 
L 371.078668 213.735677 
L 373.489469 213.35774 
L 374.694869 212.769838 
L 375.29757 212.265922 
L 375.90027 211.216097 
L 377.708371 210.880153 
L 380.119172 209.620363 
L 380.721872 209.494384 
L 384.940774 207.47872 
L 386.146175 207.142776 
L 387.351575 206.890818 
L 388.556976 206.302916 
L 389.159676 206.050958 
L 389.762376 205.966972 
L 392.173177 204.917147 
L 393.981278 203.783336 
L 394.583978 203.69935 
L 395.186679 203.489385 
L 395.789379 203.447392 
L 398.80288 202.691518 
L 399.405581 202.229595 
L 400.610981 201.809665 
L 402.419082 201.221763 
L 403.021782 200.843826 
L 403.624482 200.675854 
L 404.227183 200.255924 
L 404.829883 200.003966 
L 406.035284 199.374071 
L 408.446085 198.618197 
L 409.048785 198.324246 
L 410.856886 196.938477 
L 411.459586 196.812498 
L 412.664986 195.888652 
L 413.267687 195.762673 
L 413.870387 194.838827 
L 414.473087 194.586869 
L 415.075788 194.124946 
L 415.678488 194.04096 
L 416.883888 193.327079 
L 417.486589 193.2011 
L 418.089289 192.949142 
L 418.691989 192.487219 
L 419.294689 192.277254 
L 421.10279 191.059457 
L 423.513591 189.84166 
L 424.116292 189.757674 
L 425.321692 189.211765 
L 425.924392 188.875821 
L 426.527093 187.867989 
L 427.129793 187.32208 
L 427.732493 186.986136 
L 428.335194 186.860157 
L 429.540594 186.104283 
L 430.143294 185.978304 
L 431.348695 185.390402 
L 433.156796 184.634528 
L 434.362196 183.794668 
L 435.567597 182.534878 
L 438.581098 180.351241 
L 439.786499 179.385402 
L 440.389199 179.133444 
L 440.991899 178.461556 
L 441.594599 177.999633 
L 442.8 177.579703 
L 444.005401 176.781836 
L 444.608101 176.487885 
L 445.210801 176.319913 
L 445.813501 175.899983 
L 446.416202 175.815997 
L 448.224302 174.850158 
L 449.429703 174.136277 
L 455.456706 171.994634 
L 456.059406 171.448725 
L 457.867507 170.776837 
L 459.072907 170.3989 
L 459.675608 169.936977 
L 462.086409 168.677187 
L 462.689109 168.341243 
L 463.894509 165.989635 
L 465.09991 164.561873 
L 466.305311 163.847992 
L 468.113411 163.134111 
L 468.716112 163.050125 
L 469.318812 162.714181 
L 471.126913 162.168272 
L 473.537714 161.076454 
L 474.140414 160.698517 
L 475.345815 160.278587 
L 478.962016 158.178937 
L 479.564716 157.549042 
L 480.770117 156.919147 
L 484.386319 155.029462 
L 484.989019 154.777504 
L 485.591719 154.399567 
L 486.194419 154.273588 
L 486.79712 153.811665 
L 489.810621 152.845826 
L 490.413321 152.677854 
L 491.016022 152.383903 
L 491.618722 151.963973 
L 492.824122 151.628029 
L 494.029523 151.166106 
L 494.632223 150.704183 
L 495.837624 150.326246 
L 496.440324 150.032295 
L 497.043024 149.864323 
L 498.248425 149.024463 
L 499.453825 148.520547 
L 500.659226 147.596701 
L 501.864626 147.176771 
L 502.467327 146.672855 
L 503.070027 146.588869 
L 504.275428 145.707015 
L 505.480828 145.119113 
L 506.083528 144.867155 
L 506.686229 144.279253 
L 510.30243 142.97747 
L 512.110531 142.179603 
L 513.918632 141.633694 
L 515.124032 141.465722 
L 515.726733 141.213764 
L 516.329433 141.129778 
L 517.534833 140.625862 
L 518.137534 140.583869 
L 520.548335 139.702016 
L 522.356436 138.484219 
L 522.959136 138.232261 
L 524.164536 137.602366 
L 524.767237 137.392401 
L 528.383438 135.41873 
L 528.986139 135.292751 
L 530.794239 134.284919 
L 532.60234 133.697017 
L 533.205041 133.445059 
L 534.410441 133.151108 
L 537.423942 132.185269 
L 539.232043 131.891318 
L 541.642844 131.135444 
L 542.245545 130.883486 
L 542.848245 130.7995 
L 543.450945 130.505549 
L 544.656346 130.253591 
L 545.861746 129.833661 
L 546.464446 129.623696 
L 547.669847 129.497717 
L 548.875248 129.203766 
L 550.683348 128.909815 
L 551.286049 128.69985 
L 552.491449 128.573871 
L 555.50495 127.817997 
L 556.710351 127.524046 
L 557.313051 127.188102 
L 560.326553 126.432228 
L 560.929253 126.306249 
L 562.134653 125.886319 
L 563.942754 125.256424 
L 564.545455 125.172438 
L 566.353555 124.542543 
L 566.956256 124.542543 
L 568.161656 124.122613 
L 568.764356 123.534711 
L 569.367057 123.24076 
L 570.572457 122.862823 
L 572.983258 121.938977 
L 573.585959 121.812998 
L 574.188659 121.435061 
L 574.791359 121.309082 
L 575.394059 120.973138 
L 578.407561 120.091285 
L 579.010261 119.713348 
L 579.612961 119.587369 
L 580.215662 119.083453 
L 582.023762 118.747509 
L 583.229163 118.075621 
L 583.831863 117.403733 
L 585.037264 117.151775 
L 589.256166 116.185936 
L 589.858866 116.017964 
L 591.064266 115.975971 
L 591.666967 115.68202 
L 594.077768 115.26209 
L 594.680468 115.010132 
L 596.488569 114.758174 
L 598.89937 114.0023 
L 600.707471 113.58237 
L 602.515572 113.120447 
L 604.323672 112.574538 
L 607.337174 111.692685 
L 608.542574 111.146776 
L 609.747975 110.726846 
L 610.350675 110.264923 
L 611.556076 109.928979 
L 612.158776 109.67702 
L 613.364176 109.341076 
L 615.774977 108.249258 
L 617.583078 108.123279 
L 619.993879 107.451391 
L 620.59658 107.073454 
L 621.80198 106.73751 
L 623.610081 105.813664 
L 624.212781 105.687685 
L 624.815482 105.393734 
L 625.418182 105.351741 
L 632.047885 103.126112 
L 634.458686 102.53821 
L 635.061386 102.370238 
L 636.266787 101.824329 
L 636.869487 101.740343 
L 638.074887 101.404399 
L 638.677588 100.942476 
L 639.280288 100.648525 
L 639.882988 99.934644 
L 640.485689 99.514714 
L 641.691089 99.136777 
L 642.293789 98.674854 
L 647.115392 96.701183 
L 647.718092 96.533211 
L 648.320792 96.155274 
L 650.731593 95.441393 
L 651.936994 94.853491 
L 653.142394 94.13961 
L 653.745095 94.013631 
L 654.347795 93.551708 
L 656.155896 92.585869 
L 657.361296 91.997967 
L 657.963996 91.788002 
L 659.772097 90.78017 
L 660.374797 90.570205 
L 661.580198 89.856324 
L 662.182898 89.646359 
L 662.785599 89.226429 
L 663.990999 88.806499 
L 664.593699 88.68052 
L 667.0045 87.588702 
L 670.018002 86.538877 
L 670.620702 86.496884 
L 671.223402 86.328912 
L 671.826103 85.950975 
L 672.428803 85.866989 
L 673.031503 85.657024 
L 674.839604 85.32108 
L 679.058506 83.179437 
L 679.661206 83.095451 
L 681.469307 82.129612 
L 683.277408 81.457724 
L 685.085509 80.659857 
L 687.49631 79.694018 
L 688.09901 79.526046 
L 688.70171 79.148109 
L 689.907111 78.980137 
L 690.509811 78.6022 
L 691.112511 78.560207 
L 692.317912 78.18227 
L 693.523312 77.594368 
L 694.126013 77.510382 
L 694.728713 77.258424 
L 695.331413 77.132445 
L 697.139514 76.334578 
L 697.742214 76.208599 
L 698.344914 75.956641 
L 701.358416 75.24276 
L 703.166517 74.570872 
L 705.577318 73.185102 
L 706.782718 72.723179 
L 707.385419 72.345242 
L 708.590819 72.093284 
L 709.193519 71.75734 
L 709.79622 71.631361 
L 711.00162 70.959473 
L 714.617822 69.279753 
L 716.425923 68.691851 
L 717.631323 68.271921 
L 718.234023 68.061956 
L 719.439424 67.474054 
L 720.644824 67.096117 
L 721.247525 66.970138 
L 722.452925 66.424229 
L 723.055626 66.214264 
L 723.658326 65.87832 
L 724.261026 65.794334 
L 724.863726 65.584369 
L 726.069127 64.912481 
L 728.479928 63.820663 
L 729.685329 63.400733 
L 730.890729 62.770838 
L 731.493429 62.686852 
L 734.506931 61.385069 
L 735.109631 60.965139 
L 737.520432 60.167272 
L 738.123132 60.167272 
L 739.328533 59.621363 
L 739.931233 59.15944 
L 740.533933 58.487552 
L 741.136634 57.983636 
L 741.739334 57.689685 
L 742.342034 57.521713 
L 742.944734 57.143776 
L 743.547435 57.017797 
L 744.150135 56.723846 
L 744.752835 56.63986 
L 745.355536 56.21993 
L 745.958236 56.093951 
L 746.560936 55.8 
L 747.163636 55.8 
L 747.163636 55.8 
" clip-path="url(#pc46a3eb135)" style="fill: none; stroke: #1f77b4; stroke-width: 1.5; stroke-linecap: square"/>
   </g>
   <g id="line2d_36">
    <path d="M 139.039064 307.8 
L 140.847165 307.716014 
L 142.655266 307.674021 
L 146.271467 307.590035 
L 149.284968 307.464056 
L 151.69577 307.464056 
L 152.29847 307.296084 
L 154.709271 307.212098 
L 156.517372 307.002133 
L 158.325473 306.834161 
L 161.941674 306.666189 
L 162.544374 306.666189 
L 163.147075 306.54021 
L 165.557876 306.456224 
L 166.763276 306.372238 
L 171.584878 306.288252 
L 174.59838 306.162273 
L 181.830783 306.078287 
L 184.844284 305.952308 
L 188.460486 305.868322 
L 190.871287 305.784336 
L 196.29559 305.70035 
L 198.10369 305.658357 
L 199.911791 305.616364 
L 201.719892 305.406399 
L 205.336094 305.364406 
L 206.541494 305.28042 
L 210.760396 305.196434 
L 217.390099 304.818497 
L 221.609001 304.734511 
L 222.814401 304.650525 
L 224.622502 304.566539 
L 228.238704 304.398567 
L 230.649505 304.356574 
L 232.457606 304.188602 
L 240.292709 303.726679 
L 243.306211 303.642693 
L 248.730513 303.348742 
L 250.538614 303.264756 
L 256.565617 302.928812 
L 263.19532 302.844826 
L 265.606121 302.592868 
L 266.811521 302.508882 
L 274.646625 301.878987 
L 278.262826 301.417064 
L 280.673627 301.333078 
L 285.49523 300.703183 
L 289.111431 300.619197 
L 290.919532 300.451225 
L 292.124932 300.409232 
L 293.330333 300.283253 
L 295.138434 300.199267 
L 296.343834 300.031295 
L 299.357336 299.695351 
L 301.768137 299.611365 
L 302.973537 299.527379 
L 305.384338 299.443393 
L 306.589739 299.359407 
L 309.60324 299.065456 
L 310.205941 298.897484 
L 313.822142 298.729512 
L 316.835644 298.645526 
L 324.670747 298.183603 
L 326.478848 298.099617 
L 334.313951 297.637694 
L 338.532853 297.553708 
L 339.135554 297.427729 
L 343.957156 297.343743 
L 348.176058 297.133778 
L 354.805761 297.049792 
L 359.024662 296.839827 
L 363.846265 296.755841 
L 368.667867 296.503883 
L 372.886769 296.419897 
L 384.338074 295.706016 
L 389.159676 295.62203 
L 404.829883 294.614198 
L 408.446085 294.530212 
L 410.254185 294.488219 
L 412.062286 294.446226 
L 413.870387 294.278254 
L 418.691989 294.194268 
L 419.89739 293.984303 
L 421.10279 293.900317 
L 424.116292 293.774338 
L 425.321692 293.690352 
L 426.527093 293.606366 
L 431.951395 293.52238 
L 433.156796 293.396401 
L 435.567597 293.354408 
L 436.170297 293.228429 
L 437.375698 293.144443 
L 437.978398 293.018464 
L 439.786499 292.934478 
L 449.429703 292.346576 
L 451.840504 292.26259 
L 454.854005 292.136611 
L 463.291809 292.052625 
L 467.510711 291.84266 
L 472.332313 291.758674 
L 474.743114 291.674688 
L 477.153915 291.632695 
L 478.359316 291.506716 
L 480.770117 291.42273 
L 486.79712 291.086786 
L 490.413321 291.044793 
L 492.221422 290.876821 
L 494.029523 290.834828 
L 498.248425 290.750842 
L 500.659226 290.666856 
L 507.891629 290.58287 
L 510.905131 290.456891 
L 514.521332 290.372905 
L 516.329433 290.16294 
L 519.945635 290.120947 
L 521.753735 289.952975 
L 524.164536 289.868989 
L 531.39694 289.785002 
L 534.410441 289.659023 
L 544.656346 289.61703 
L 545.861746 289.533044 
L 547.669847 289.491051 
L 555.50495 289.407065 
L 556.710351 289.323079 
L 563.340054 289.239093 
L 565.750855 289.155107 
L 572.983258 289.113114 
L 574.188659 289.029128 
L 583.229163 288.987135 
L 585.037264 288.819163 
L 600.10477 288.735177 
L 601.912871 288.693184 
L 618.185779 288.609198 
L 620.59658 288.525212 
L 630.842484 288.441226 
L 632.047885 288.35724 
L 635.061386 288.273254 
L 636.869487 288.105282 
L 639.882988 288.021296 
L 642.293789 287.93731 
L 645.909991 287.853324 
L 647.718092 287.811331 
L 650.128893 287.727345 
L 651.936994 287.685352 
L 654.950495 287.601366 
L 656.155896 287.51738 
L 659.772097 287.433394 
L 662.785599 287.307415 
L 663.990999 287.265422 
L 665.1964 287.181436 
L 667.0045 287.139443 
L 669.415302 287.055457 
L 671.826103 286.971471 
L 679.661206 286.887485 
L 682.072007 286.803499 
L 686.893609 286.719513 
L 691.112511 286.509548 
L 696.536814 286.425562 
L 697.742214 286.341576 
L 708.590819 286.25759 
L 710.39892 286.215597 
L 713.412421 286.173604 
L 715.823222 285.921646 
L 717.631323 285.879653 
L 721.247525 285.795667 
L 727.877228 285.41773 
L 730.288029 285.333744 
L 732.69883 285.249758 
L 736.315032 285.165772 
L 737.520432 285.081786 
L 739.931233 284.9978 
L 742.342034 284.745842 
L 744.752835 284.661856 
L 747.163636 284.619863 
L 747.163636 284.619863 
" clip-path="url(#pc46a3eb135)" style="fill: none; stroke: #ff7f0e; stroke-width: 1.5; stroke-linecap: square"/>
   </g>
   <g id="patch_3">
    <path d="M 108 320.4 
L 108 43.2 
" style="fill: none; stroke: #a9a9a9; stroke-width: 0.8; stroke-linejoin: miter; stroke-linecap: square"/>
   </g>
   <g id="patch_4">
    <path d="M 777.6 320.4 
L 777.6 43.2 
" style="fill: none"/>
   </g>
   <g id="patch_5">
    <path d="M 108 320.4 
L 777.6 320.4 
" style="fill: none; stroke: #a9a9a9; stroke-width: 0.8; stroke-linejoin: miter; stroke-linecap: square"/>
   </g>
   <g id="patch_6">
    <path d="M 108 43.2 
L 777.6 43.2 
" style="fill: none"/>
   </g>
   <g id="text_18">
    <!-- get_subscribe history -->
    <g style="fill: #a9a9a9" transform="translate(378.6075 37.2) scale(0.12 -0.12)">
     <defs>
      <path id="DejaVuSans-67" d="M 2906 1791 
Q 2906 2416 2648 2759 
Q 2391 3103 1925 3103 
Q 1463 3103 1205 2759 
Q 947 2416 947 1791 
Q 947 1169 1205 825 
Q 1463 481 1925 481 
Q 2391 481 2648 825 
Q 2906 1169 2906 1791 
z
M 3481 434 
Q 3481 -459 3084 -895 
Q 2688 -1331 1869 -1331 
Q 1566 -1331 1297 -1286 
Q 1028 -1241 775 -1147 
L 775 -588 
Q 1028 -725 1275 -790 
Q 1522 -856 1778 -856 
Q 2344 -856 2625 -561 
Q 2906 -266 2906 331 
L 2906 616 
Q 2728 306 2450 153 
Q 2172 0 1784 0 
Q 1141 0 747 490 
Q 353 981 353 1791 
Q 353 2603 747 3093 
Q 1141 3584 1784 3584 
Q 2172 3584 2450 3431 
Q 2728 3278 2906 2969 
L 2906 3500 
L 3481 3500 
L 3481 434 
z
" transform="scale(0.015625)"/>
      <path id="DejaVuSans-65" d="M 3597 1894 
L 3597 1613 
L 953 1613 
Q 991 1019 1311 708 
Q 1631 397 2203 397 
Q 2534 397 2845 478 
Q 3156 559 3463 722 
L 3463 178 
Q 3153 47 2828 -22 
Q 2503 -91 2169 -91 
Q 1331 -91 842 396 
Q 353 884 353 1716 
Q 353 2575 817 3079 
Q 1281 3584 2069 3584 
Q 2775 3584 3186 3129 
Q 3597 2675 3597 1894 
z
M 3022 2063 
Q 3016 2534 2758 2815 
Q 2500 3097 2075 3097 
Q 1594 3097 1305 2825 
Q 1016 2553 972 2059 
L 3022 2063 
z
" transform="scale(0.015625)"/>
      <path id="DejaVuSans-74" d="M 1172 4494 
L 1172 3500 
L 2356 3500 
L 2356 3053 
L 1172 3053 
L 1172 1153 
Q 1172 725 1289 603 
Q 1406 481 1766 481 
L 2356 481 
L 2356 0 
L 1766 0 
Q 1100 0 847 248 
Q 594 497 594 1153 
L 594 3053 
L 172 3053 
L 172 3500 
L 594 3500 
L 594 4494 
L 1172 4494 
z
" transform="scale(0.015625)"/>
      <path id="DejaVuSans-5f" d="M 3263 -1063 
L 3263 -1509 
L -63 -1509 
L -63 -1063 
L 3263 -1063 
z
" transform="scale(0.015625)"/>
      <path id="DejaVuSans-73" d="M 2834 3397 
L 2834 2853 
Q 2591 2978 2328 3040 
Q 2066 3103 1784 3103 
Q 1356 3103 1142 2972 
Q 928 2841 928 2578 
Q 928 2378 1081 2264 
Q 1234 2150 1697 2047 
L 1894 2003 
Q 2506 1872 2764 1633 
Q 3022 1394 3022 966 
Q 3022 478 2636 193 
Q 2250 -91 1575 -91 
Q 1294 -91 989 -36 
Q 684 19 347 128 
L 347 722 
Q 666 556 975 473 
Q 1284 391 1588 391 
Q 1994 391 2212 530 
Q 2431 669 2431 922 
Q 2431 1156 2273 1281 
Q 2116 1406 1581 1522 
L 1381 1569 
Q 847 1681 609 1914 
Q 372 2147 372 2553 
Q 372 3047 722 3315 
Q 1072 3584 1716 3584 
Q 2034 3584 2315 3537 
Q 2597 3491 2834 3397 
z
" transform="scale(0.015625)"/>
      <path id="DejaVuSans-75" d="M 544 1381 
L 544 3500 
L 1119 3500 
L 1119 1403 
Q 1119 906 1312 657 
Q 1506 409 1894 409 
Q 2359 409 2629 706 
Q 2900 1003 2900 1516 
L 2900 3500 
L 3475 3500 
L 3475 0 
L 2900 0 
L 2900 538 
Q 2691 219 2414 64 
Q 2138 -91 1772 -91 
Q 1169 -91 856 284 
Q 544 659 544 1381 
z
M 1991 3584 
L 1991 3584 
z
" transform="scale(0.015625)"/>
      <path id="DejaVuSans-62" d="M 3116 1747 
Q 3116 2381 2855 2742 
Q 2594 3103 2138 3103 
Q 1681 3103 1420 2742 
Q 1159 2381 1159 1747 
Q 1159 1113 1420 752 
Q 1681 391 2138 391 
Q 2594 391 2855 752 
Q 3116 1113 3116 1747 
z
M 1159 2969 
Q 1341 3281 1617 3432 
Q 1894 3584 2278 3584 
Q 2916 3584 3314 3078 
Q 3713 2572 3713 1747 
Q 3713 922 3314 415 
Q 2916 -91 2278 -91 
Q 1894 -91 1617 61 
Q 1341 213 1159 525 
L 1159 0 
L 581 0 
L 581 4863 
L 1159 4863 
L 1159 2969 
z
" transform="scale(0.015625)"/>
      <path id="DejaVuSans-63" d="M 3122 3366 
L 3122 2828 
Q 2878 2963 2633 3030 
Q 2388 3097 2138 3097 
Q 1578 3097 1268 2742 
Q 959 2388 959 1747 
Q 959 1106 1268 751 
Q 1578 397 2138 397 
Q 2388 397 2633 464 
Q 2878 531 3122 666 
L 3122 134 
Q 2881 22 2623 -34 
Q 2366 -91 2075 -91 
Q 1284 -91 818 406 
Q 353 903 353 1747 
Q 353 2603 823 3093 
Q 1294 3584 2113 3584 
Q 2378 3584 2631 3529 
Q 2884 3475 3122 3366 
z
" transform="scale(0.015625)"/>
      <path id="DejaVuSans-72" d="M 2631 2963 
Q 2534 3019 2420 3045 
Q 2306 3072 2169 3072 
Q 1681 3072 1420 2755 
Q 1159 2438 1159 1844 
L 1159 0 
L 581 0 
L 581 3500 
L 1159 3500 
L 1159 2956 
Q 1341 3275 1631 3429 
Q 1922 3584 2338 3584 
Q 2397 3584 2469 3576 
Q 2541 3569 2628 3553 
L 2631 2963 
z
" transform="scale(0.015625)"/>
      <path id="DejaVuSans-69" d="M 603 3500 
L 1178 3500 
L 1178 0 
L 603 0 
L 603 3500 
z
M 603 4863 
L 1178 4863 
L 1178 4134 
L 603 4134 
L 603 4863 
z
" transform="scale(0.015625)"/>
      <path id="DejaVuSans-20" transform="scale(0.015625)"/>
      <path id="DejaVuSans-68" d="M 3513 2113 
L 3513 0 
L 2938 0 
L 2938 2094 
Q 2938 2591 2744 2837 
Q 2550 3084 2163 3084 
Q 1697 3084 1428 2787 
Q 1159 2491 1159 1978 
L 1159 0 
L 581 0 
L 581 4863 
L 1159 4863 
L 1159 2956 
Q 1366 3272 1645 3428 
Q 1925 3584 2291 3584 
Q 2894 3584 3203 3211 
Q 3513 2838 3513 2113 
z
" transform="scale(0.015625)"/>
      <path id="DejaVuSans-6f" d="M 1959 3097 
Q 1497 3097 1228 2736 
Q 959 2375 959 1747 
Q 959 1119 1226 758 
Q 1494 397 1959 397 
Q 2419 397 2687 759 
Q 2956 1122 2956 1747 
Q 2956 2369 2687 2733 
Q 2419 3097 1959 3097 
z
M 1959 3584 
Q 2709 3584 3137 3096 
Q 3566 2609 3566 1747 
Q 3566 888 3137 398 
Q 2709 -91 1959 -91 
Q 1206 -91 779 398 
Q 353 888 353 1747 
Q 353 2609 779 3096 
Q 1206 3584 1959 3584 
z
" transform="scale(0.015625)"/>
      <path id="DejaVuSans-79" d="M 2059 -325 
Q 1816 -950 1584 -1140 
Q 1353 -1331 966 -1331 
L 506 -1331 
L 506 -850 
L 844 -850 
Q 1081 -850 1212 -737 
Q 1344 -625 1503 -206 
L 1606 56 
L 191 3500 
L 800 3500 
L 1894 763 
L 2988 3500 
L 3597 3500 
L 2059 -325 
z
" transform="scale(0.015625)"/>
     </defs>
     <use xlink:href="#DejaVuSans-67"/>
     <use xlink:href="#DejaVuSans-65" x="63.476562"/>
     <use xlink:href="#DejaVuSans-74" x="125"/>
     <use xlink:href="#DejaVuSans-5f" x="164.208984"/>
     <use xlink:href="#DejaVuSans-73" x="214.208984"/>
     <use xlink:href="#DejaVuSans-75" x="266.308594"/>
     <use xlink:href="#DejaVuSans-62" x="329.6875"/>
     <use xlink:href="#DejaVuSans-73" x="393.164062"/>
     <use xlink:href="#DejaVuSans-63" x="445.263672"/>
     <use xlink:href="#DejaVuSans-72" x="500.244141"/>
     <use xlink:href="#DejaVuSans-69" x="541.357422"/>
     <use xlink:href="#DejaVuSans-62" x="569.140625"/>
     <use xlink:href="#DejaVuSans-65" x="632.617188"/>
     <use xlink:href="#DejaVuSans-20" x="694.140625"/>
     <use xlink:href="#DejaVuSans-68" x="725.927734"/>
     <use xlink:href="#DejaVuSans-69" x="789.306641"/>
     <use xlink:href="#DejaVuSans-73" x="817.089844"/>
     <use xlink:href="#DejaVuSans-74" x="869.189453"/>
     <use xlink:href="#DejaVuSans-6f" x="908.398438"/>
     <use xlink:href="#DejaVuSans-72" x="969.580078"/>
     <use xlink:href="#DejaVuSans-79" x="1010.693359"/>
    </g>
   </g>
   <g id="legend_1">
    <g id="line2d_37">
     <path d="M 815.08 328.498438 
L 825.08 328.498438 
L 835.08 328.498438 
" style="fill: none; stroke: #1f77b4; stroke-width: 1.5; stroke-linecap: square"/>
    </g>
    <g id="text_19">
     <!-- star -->
     <g style="fill: #a9a9a9" transform="translate(843.08 331.998438) scale(0.1 -0.1)">
      <defs>
       <path id="DejaVuSans-61" d="M 2194 1759 
Q 1497 1759 1228 1600 
Q 959 1441 959 1056 
Q 959 750 1161 570 
Q 1363 391 1709 391 
Q 2188 391 2477 730 
Q 2766 1069 2766 1631 
L 2766 1759 
L 2194 1759 
z
M 3341 1997 
L 3341 0 
L 2766 0 
L 2766 531 
Q 2569 213 2275 61 
Q 1981 -91 1556 -91 
Q 1019 -91 701 211 
Q 384 513 384 1019 
Q 384 1609 779 1909 
Q 1175 2209 1959 2209 
L 2766 2209 
L 2766 2266 
Q 2766 2663 2505 2880 
Q 2244 3097 1772 3097 
Q 1472 3097 1187 3025 
Q 903 2953 641 2809 
L 641 3341 
Q 956 3463 1253 3523 
Q 1550 3584 1831 3584 
Q 2591 3584 2966 3190 
Q 3341 2797 3341 1997 
z
" transform="scale(0.015625)"/>
      </defs>
      <use xlink:href="#DejaVuSans-73"/>
      <use xlink:href="#DejaVuSans-74" x="52.099609"/>
      <use xlink:href="#DejaVuSans-61" x="91.308594"/>
      <use xlink:href="#DejaVuSans-72" x="152.587891"/>
     </g>
    </g>
    <g id="line2d_38">
     <path d="M 815.08 343.176562 
L 825.08 343.176562 
L 835.08 343.176562 
" style="fill: none; stroke: #ff7f0e; stroke-width: 1.5; stroke-linecap: square"/>
    </g>
    <g id="text_20">
     <!-- fork -->
     <g style="fill: #a9a9a9" transform="translate(843.08 346.676562) scale(0.1 -0.1)">
      <defs>
       <path id="DejaVuSans-66" d="M 2375 4863 
L 2375 4384 
L 1825 4384 
Q 1516 4384 1395 4259 
Q 1275 4134 1275 3809 
L 1275 3500 
L 2222 3500 
L 2222 3053 
L 1275 3053 
L 1275 0 
L 697 0 
L 697 3053 
L 147 3053 
L 147 3500 
L 697 3500 
L 697 3744 
Q 697 4328 969 4595 
Q 1241 4863 1831 4863 
L 2375 4863 
z
" transform="scale(0.015625)"/>
       <path id="DejaVuSans-6b" d="M 581 4863 
L 1159 4863 
L 1159 1991 
L 2875 3500 
L 3609 3500 
L 1753 1863 
L 3688 0 
L 2938 0 
L 1159 1709 
L 1159 0 
L 581 0 
L 581 4863 
z
" transform="scale(0.015625)"/>
      </defs>
      <use xlink:href="#DejaVuSans-66"/>
      <use xlink:href="#DejaVuSans-6f" x="35.205078"/>
      <use xlink:href="#DejaVuSans-72" x="96.386719"/>
      <use xlink:href="#DejaVuSans-6b" x="137.5"/>
     </g>
    </g>
   </g>
  </g>
 </g>
 <defs>
  <clipPath id="pc46a3eb135">
   <rect x="108" y="43.2" width="669.6" height="277.2"/>
  </clipPath>
 </defs>
</svg>
