<?xml version="1.0" encoding="utf-8" standalone="no"?>
<!DOCTYPE svg PUBLIC "-//W3C//DTD SVG 1.1//EN"
  "http://www.w3.org/Graphics/SVG/1.1/DTD/svg11.dtd">
<svg xmlns:xlink="http://www.w3.org/1999/xlink" width="864pt" height="360pt" viewBox="0 0 864 360" xmlns="http://www.w3.org/2000/svg" version="1.1">
 <metadata>
  <rdf:RDF xmlns:dc="http://purl.org/dc/elements/1.1/" xmlns:cc="http://creativecommons.org/ns#" xmlns:rdf="http://www.w3.org/1999/02/22-rdf-syntax-ns#">
   <cc:Work>
    <dc:type rdf:resource="http://purl.org/dc/dcmitype/StillImage"/>
    <dc:date>2024-04-30T08:10:42.078704</dc:date>
    <dc:format>image/svg+xml</dc:format>
    <dc:creator>
     <cc:Agent>
      <dc:title>Matplotlib v3.8.4, https://matplotlib.org/</dc:title>
     </cc:Agent>
    </dc:creator>
   </cc:Work>
  </rdf:RDF>
 </metadata>
 <defs>
  <style type="text/css">*{stroke-linejoin: round; stroke-linecap: butt}</style>
 </defs>
 <g id="figure_1">
  <g id="patch_1">
   <path d="M 0 360 
L 864 360 
L 864 0 
L 0 0 
L 0 360 
z
" style="fill: none; opacity: 0"/>
  </g>
  <g id="axes_1">
   <g id="patch_2">
    <path d="M 108 320.4 
L 777.6 320.4 
L 777.6 43.2 
L 108 43.2 
L 108 320.4 
z
" style="fill: none; opacity: 0"/>
   </g>
   <g id="matplotlib.axis_1">
    <g id="xtick_1">
     <g id="line2d_1">
      <path d="M 161.918425 320.4 
L 161.918425 43.2 
" clip-path="url(#p49c496b8d1)" style="fill: none; stroke-dasharray: 5.12,1.28,0.8,1.28; stroke-dashoffset: 0; stroke: #b0b0b0; stroke-width: 0.8"/>
     </g>
     <g id="line2d_2">
      <defs>
       <path id="m5ea9016f2d" d="M 0 0 
L 0 3.5 
" style="stroke: #a9a9a9; stroke-width: 0.8"/>
      </defs>
      <g>
       <use xlink:href="#m5ea9016f2d" x="161.918425" y="320.4" style="fill: #a9a9a9; stroke: #a9a9a9; stroke-width: 0.8"/>
      </g>
     </g>
     <g id="text_1">
      <!-- 2021-09 -->
      <g style="fill: #a9a9a9" transform="translate(141.027018 334.998438) scale(0.1 -0.1)">
       <defs>
        <path id="DejaVuSans-32" d="M 1228 531 
L 3431 531 
L 3431 0 
L 469 0 
L 469 531 
Q 828 903 1448 1529 
Q 2069 2156 2228 2338 
Q 2531 2678 2651 2914 
Q 2772 3150 2772 3378 
Q 2772 3750 2511 3984 
Q 2250 4219 1831 4219 
Q 1534 4219 1204 4116 
Q 875 4013 500 3803 
L 500 4441 
Q 881 4594 1212 4672 
Q 1544 4750 1819 4750 
Q 2544 4750 2975 4387 
Q 3406 4025 3406 3419 
Q 3406 3131 3298 2873 
Q 3191 2616 2906 2266 
Q 2828 2175 2409 1742 
Q 1991 1309 1228 531 
z
" transform="scale(0.015625)"/>
        <path id="DejaVuSans-30" d="M 2034 4250 
Q 1547 4250 1301 3770 
Q 1056 3291 1056 2328 
Q 1056 1369 1301 889 
Q 1547 409 2034 409 
Q 2525 409 2770 889 
Q 3016 1369 3016 2328 
Q 3016 3291 2770 3770 
Q 2525 4250 2034 4250 
z
M 2034 4750 
Q 2819 4750 3233 4129 
Q 3647 3509 3647 2328 
Q 3647 1150 3233 529 
Q 2819 -91 2034 -91 
Q 1250 -91 836 529 
Q 422 1150 422 2328 
Q 422 3509 836 4129 
Q 1250 4750 2034 4750 
z
" transform="scale(0.015625)"/>
        <path id="DejaVuSans-31" d="M 794 531 
L 1825 531 
L 1825 4091 
L 703 3866 
L 703 4441 
L 1819 4666 
L 2450 4666 
L 2450 531 
L 3481 531 
L 3481 0 
L 794 0 
L 794 531 
z
" transform="scale(0.015625)"/>
        <path id="DejaVuSans-2d" d="M 313 2009 
L 1997 2009 
L 1997 1497 
L 313 1497 
L 313 2009 
z
" transform="scale(0.015625)"/>
        <path id="DejaVuSans-39" d="M 703 97 
L 703 672 
Q 941 559 1184 500 
Q 1428 441 1663 441 
Q 2288 441 2617 861 
Q 2947 1281 2994 2138 
Q 2813 1869 2534 1725 
Q 2256 1581 1919 1581 
Q 1219 1581 811 2004 
Q 403 2428 403 3163 
Q 403 3881 828 4315 
Q 1253 4750 1959 4750 
Q 2769 4750 3195 4129 
Q 3622 3509 3622 2328 
Q 3622 1225 3098 567 
Q 2575 -91 1691 -91 
Q 1453 -91 1209 -44 
Q 966 3 703 97 
z
M 1959 2075 
Q 2384 2075 2632 2365 
Q 2881 2656 2881 3163 
Q 2881 3666 2632 3958 
Q 2384 4250 1959 4250 
Q 1534 4250 1286 3958 
Q 1038 3666 1038 3163 
Q 1038 2656 1286 2365 
Q 1534 2075 1959 2075 
z
" transform="scale(0.015625)"/>
       </defs>
       <use xlink:href="#DejaVuSans-32"/>
       <use xlink:href="#DejaVuSans-30" x="63.623047"/>
       <use xlink:href="#DejaVuSans-32" x="127.246094"/>
       <use xlink:href="#DejaVuSans-31" x="190.869141"/>
       <use xlink:href="#DejaVuSans-2d" x="254.492188"/>
       <use xlink:href="#DejaVuSans-30" x="290.576172"/>
       <use xlink:href="#DejaVuSans-39" x="354.199219"/>
      </g>
     </g>
    </g>
    <g id="xtick_2">
     <g id="line2d_3">
      <path d="M 235.375128 320.4 
L 235.375128 43.2 
" clip-path="url(#p49c496b8d1)" style="fill: none; stroke-dasharray: 5.12,1.28,0.8,1.28; stroke-dashoffset: 0; stroke: #b0b0b0; stroke-width: 0.8"/>
     </g>
     <g id="line2d_4">
      <g>
       <use xlink:href="#m5ea9016f2d" x="235.375128" y="320.4" style="fill: #a9a9a9; stroke: #a9a9a9; stroke-width: 0.8"/>
      </g>
     </g>
     <g id="text_2">
      <!-- 2022-01 -->
      <g style="fill: #a9a9a9" transform="translate(214.483722 334.998438) scale(0.1 -0.1)">
       <use xlink:href="#DejaVuSans-32"/>
       <use xlink:href="#DejaVuSans-30" x="63.623047"/>
       <use xlink:href="#DejaVuSans-32" x="127.246094"/>
       <use xlink:href="#DejaVuSans-32" x="190.869141"/>
       <use xlink:href="#DejaVuSans-2d" x="254.492188"/>
       <use xlink:href="#DejaVuSans-30" x="290.576172"/>
       <use xlink:href="#DejaVuSans-31" x="354.199219"/>
      </g>
     </g>
    </g>
    <g id="xtick_3">
     <g id="line2d_5">
      <path d="M 307.627623 320.4 
L 307.627623 43.2 
" clip-path="url(#p49c496b8d1)" style="fill: none; stroke-dasharray: 5.12,1.28,0.8,1.28; stroke-dashoffset: 0; stroke: #b0b0b0; stroke-width: 0.8"/>
     </g>
     <g id="line2d_6">
      <g>
       <use xlink:href="#m5ea9016f2d" x="307.627623" y="320.4" style="fill: #a9a9a9; stroke: #a9a9a9; stroke-width: 0.8"/>
      </g>
     </g>
     <g id="text_3">
      <!-- 2022-05 -->
      <g style="fill: #a9a9a9" transform="translate(286.736217 334.998438) scale(0.1 -0.1)">
       <defs>
        <path id="DejaVuSans-35" d="M 691 4666 
L 3169 4666 
L 3169 4134 
L 1269 4134 
L 1269 2991 
Q 1406 3038 1543 3061 
Q 1681 3084 1819 3084 
Q 2600 3084 3056 2656 
Q 3513 2228 3513 1497 
Q 3513 744 3044 326 
Q 2575 -91 1722 -91 
Q 1428 -91 1123 -41 
Q 819 9 494 109 
L 494 744 
Q 775 591 1075 516 
Q 1375 441 1709 441 
Q 2250 441 2565 725 
Q 2881 1009 2881 1497 
Q 2881 1984 2565 2268 
Q 2250 2553 1709 2553 
Q 1456 2553 1204 2497 
Q 953 2441 691 2322 
L 691 4666 
z
" transform="scale(0.015625)"/>
       </defs>
       <use xlink:href="#DejaVuSans-32"/>
       <use xlink:href="#DejaVuSans-30" x="63.623047"/>
       <use xlink:href="#DejaVuSans-32" x="127.246094"/>
       <use xlink:href="#DejaVuSans-32" x="190.869141"/>
       <use xlink:href="#DejaVuSans-2d" x="254.492188"/>
       <use xlink:href="#DejaVuSans-30" x="290.576172"/>
       <use xlink:href="#DejaVuSans-35" x="354.199219"/>
      </g>
     </g>
    </g>
    <g id="xtick_4">
     <g id="line2d_7">
      <path d="M 381.686431 320.4 
L 381.686431 43.2 
" clip-path="url(#p49c496b8d1)" style="fill: none; stroke-dasharray: 5.12,1.28,0.8,1.28; stroke-dashoffset: 0; stroke: #b0b0b0; stroke-width: 0.8"/>
     </g>
     <g id="line2d_8">
      <g>
       <use xlink:href="#m5ea9016f2d" x="381.686431" y="320.4" style="fill: #a9a9a9; stroke: #a9a9a9; stroke-width: 0.8"/>
      </g>
     </g>
     <g id="text_4">
      <!-- 2022-09 -->
      <g style="fill: #a9a9a9" transform="translate(360.795025 334.998438) scale(0.1 -0.1)">
       <use xlink:href="#DejaVuSans-32"/>
       <use xlink:href="#DejaVuSans-30" x="63.623047"/>
       <use xlink:href="#DejaVuSans-32" x="127.246094"/>
       <use xlink:href="#DejaVuSans-32" x="190.869141"/>
       <use xlink:href="#DejaVuSans-2d" x="254.492188"/>
       <use xlink:href="#DejaVuSans-30" x="290.576172"/>
       <use xlink:href="#DejaVuSans-39" x="354.199219"/>
      </g>
     </g>
    </g>
    <g id="xtick_5">
     <g id="line2d_9">
      <path d="M 455.143135 320.4 
L 455.143135 43.2 
" clip-path="url(#p49c496b8d1)" style="fill: none; stroke-dasharray: 5.12,1.28,0.8,1.28; stroke-dashoffset: 0; stroke: #b0b0b0; stroke-width: 0.8"/>
     </g>
     <g id="line2d_10">
      <g>
       <use xlink:href="#m5ea9016f2d" x="455.143135" y="320.4" style="fill: #a9a9a9; stroke: #a9a9a9; stroke-width: 0.8"/>
      </g>
     </g>
     <g id="text_5">
      <!-- 2023-01 -->
      <g style="fill: #a9a9a9" transform="translate(434.251728 334.998438) scale(0.1 -0.1)">
       <defs>
        <path id="DejaVuSans-33" d="M 2597 2516 
Q 3050 2419 3304 2112 
Q 3559 1806 3559 1356 
Q 3559 666 3084 287 
Q 2609 -91 1734 -91 
Q 1441 -91 1130 -33 
Q 819 25 488 141 
L 488 750 
Q 750 597 1062 519 
Q 1375 441 1716 441 
Q 2309 441 2620 675 
Q 2931 909 2931 1356 
Q 2931 1769 2642 2001 
Q 2353 2234 1838 2234 
L 1294 2234 
L 1294 2753 
L 1863 2753 
Q 2328 2753 2575 2939 
Q 2822 3125 2822 3475 
Q 2822 3834 2567 4026 
Q 2313 4219 1838 4219 
Q 1578 4219 1281 4162 
Q 984 4106 628 3988 
L 628 4550 
Q 988 4650 1302 4700 
Q 1616 4750 1894 4750 
Q 2613 4750 3031 4423 
Q 3450 4097 3450 3541 
Q 3450 3153 3228 2886 
Q 3006 2619 2597 2516 
z
" transform="scale(0.015625)"/>
       </defs>
       <use xlink:href="#DejaVuSans-32"/>
       <use xlink:href="#DejaVuSans-30" x="63.623047"/>
       <use xlink:href="#DejaVuSans-32" x="127.246094"/>
       <use xlink:href="#DejaVuSans-33" x="190.869141"/>
       <use xlink:href="#DejaVuSans-2d" x="254.492188"/>
       <use xlink:href="#DejaVuSans-30" x="290.576172"/>
       <use xlink:href="#DejaVuSans-31" x="354.199219"/>
      </g>
     </g>
    </g>
    <g id="xtick_6">
     <g id="line2d_11">
      <path d="M 527.39563 320.4 
L 527.39563 43.2 
" clip-path="url(#p49c496b8d1)" style="fill: none; stroke-dasharray: 5.12,1.28,0.8,1.28; stroke-dashoffset: 0; stroke: #b0b0b0; stroke-width: 0.8"/>
     </g>
     <g id="line2d_12">
      <g>
       <use xlink:href="#m5ea9016f2d" x="527.39563" y="320.4" style="fill: #a9a9a9; stroke: #a9a9a9; stroke-width: 0.8"/>
      </g>
     </g>
     <g id="text_6">
      <!-- 2023-05 -->
      <g style="fill: #a9a9a9" transform="translate(506.504224 334.998438) scale(0.1 -0.1)">
       <use xlink:href="#DejaVuSans-32"/>
       <use xlink:href="#DejaVuSans-30" x="63.623047"/>
       <use xlink:href="#DejaVuSans-32" x="127.246094"/>
       <use xlink:href="#DejaVuSans-33" x="190.869141"/>
       <use xlink:href="#DejaVuSans-2d" x="254.492188"/>
       <use xlink:href="#DejaVuSans-30" x="290.576172"/>
       <use xlink:href="#DejaVuSans-35" x="354.199219"/>
      </g>
     </g>
    </g>
    <g id="xtick_7">
     <g id="line2d_13">
      <path d="M 601.454438 320.4 
L 601.454438 43.2 
" clip-path="url(#p49c496b8d1)" style="fill: none; stroke-dasharray: 5.12,1.28,0.8,1.28; stroke-dashoffset: 0; stroke: #b0b0b0; stroke-width: 0.8"/>
     </g>
     <g id="line2d_14">
      <g>
       <use xlink:href="#m5ea9016f2d" x="601.454438" y="320.4" style="fill: #a9a9a9; stroke: #a9a9a9; stroke-width: 0.8"/>
      </g>
     </g>
     <g id="text_7">
      <!-- 2023-09 -->
      <g style="fill: #a9a9a9" transform="translate(580.563031 334.998438) scale(0.1 -0.1)">
       <use xlink:href="#DejaVuSans-32"/>
       <use xlink:href="#DejaVuSans-30" x="63.623047"/>
       <use xlink:href="#DejaVuSans-32" x="127.246094"/>
       <use xlink:href="#DejaVuSans-33" x="190.869141"/>
       <use xlink:href="#DejaVuSans-2d" x="254.492188"/>
       <use xlink:href="#DejaVuSans-30" x="290.576172"/>
       <use xlink:href="#DejaVuSans-39" x="354.199219"/>
      </g>
     </g>
    </g>
    <g id="xtick_8">
     <g id="line2d_15">
      <path d="M 674.911141 320.4 
L 674.911141 43.2 
" clip-path="url(#p49c496b8d1)" style="fill: none; stroke-dasharray: 5.12,1.28,0.8,1.28; stroke-dashoffset: 0; stroke: #b0b0b0; stroke-width: 0.8"/>
     </g>
     <g id="line2d_16">
      <g>
       <use xlink:href="#m5ea9016f2d" x="674.911141" y="320.4" style="fill: #a9a9a9; stroke: #a9a9a9; stroke-width: 0.8"/>
      </g>
     </g>
     <g id="text_8">
      <!-- 2024-01 -->
      <g style="fill: #a9a9a9" transform="translate(654.019735 334.998438) scale(0.1 -0.1)">
       <defs>
        <path id="DejaVuSans-34" d="M 2419 4116 
L 825 1625 
L 2419 1625 
L 2419 4116 
z
M 2253 4666 
L 3047 4666 
L 3047 1625 
L 3713 1625 
L 3713 1100 
L 3047 1100 
L 3047 0 
L 2419 0 
L 2419 1100 
L 313 1100 
L 313 1709 
L 2253 4666 
z
" transform="scale(0.015625)"/>
       </defs>
       <use xlink:href="#DejaVuSans-32"/>
       <use xlink:href="#DejaVuSans-30" x="63.623047"/>
       <use xlink:href="#DejaVuSans-32" x="127.246094"/>
       <use xlink:href="#DejaVuSans-34" x="190.869141"/>
       <use xlink:href="#DejaVuSans-2d" x="254.492188"/>
       <use xlink:href="#DejaVuSans-30" x="290.576172"/>
       <use xlink:href="#DejaVuSans-31" x="354.199219"/>
      </g>
     </g>
    </g>
    <g id="xtick_9">
     <g id="line2d_17">
      <path d="M 747.76574 320.4 
L 747.76574 43.2 
" clip-path="url(#p49c496b8d1)" style="fill: none; stroke-dasharray: 5.12,1.28,0.8,1.28; stroke-dashoffset: 0; stroke: #b0b0b0; stroke-width: 0.8"/>
     </g>
     <g id="line2d_18">
      <g>
       <use xlink:href="#m5ea9016f2d" x="747.76574" y="320.4" style="fill: #a9a9a9; stroke: #a9a9a9; stroke-width: 0.8"/>
      </g>
     </g>
     <g id="text_9">
      <!-- 2024-05 -->
      <g style="fill: #a9a9a9" transform="translate(726.874334 334.998438) scale(0.1 -0.1)">
       <use xlink:href="#DejaVuSans-32"/>
       <use xlink:href="#DejaVuSans-30" x="63.623047"/>
       <use xlink:href="#DejaVuSans-32" x="127.246094"/>
       <use xlink:href="#DejaVuSans-34" x="190.869141"/>
       <use xlink:href="#DejaVuSans-2d" x="254.492188"/>
       <use xlink:href="#DejaVuSans-30" x="290.576172"/>
       <use xlink:href="#DejaVuSans-35" x="354.199219"/>
      </g>
     </g>
    </g>
   </g>
   <g id="matplotlib.axis_2">
    <g id="ytick_1">
     <g id="line2d_19">
      <path d="M 108 307.841937 
L 777.6 307.841937 
" clip-path="url(#p49c496b8d1)" style="fill: none; stroke-dasharray: 5.12,1.28,0.8,1.28; stroke-dashoffset: 0; stroke: #b0b0b0; stroke-width: 0.8"/>
     </g>
     <g id="line2d_20">
      <defs>
       <path id="md0ce65b016" d="M 0 0 
L -3.5 0 
" style="stroke: #a9a9a9; stroke-width: 0.8"/>
      </defs>
      <g>
       <use xlink:href="#md0ce65b016" x="108" y="307.841937" style="fill: #a9a9a9; stroke: #a9a9a9; stroke-width: 0.8"/>
      </g>
     </g>
     <g id="text_10">
      <!-- 0 -->
      <g style="fill: #a9a9a9" transform="translate(94.6375 311.641156) scale(0.1 -0.1)">
       <use xlink:href="#DejaVuSans-30"/>
      </g>
     </g>
    </g>
    <g id="ytick_2">
     <g id="line2d_21">
      <path d="M 108 274.292262 
L 777.6 274.292262 
" clip-path="url(#p49c496b8d1)" style="fill: none; stroke-dasharray: 5.12,1.28,0.8,1.28; stroke-dashoffset: 0; stroke: #b0b0b0; stroke-width: 0.8"/>
     </g>
     <g id="line2d_22">
      <g>
       <use xlink:href="#md0ce65b016" x="108" y="274.292262" style="fill: #a9a9a9; stroke: #a9a9a9; stroke-width: 0.8"/>
      </g>
     </g>
     <g id="text_11">
      <!-- 800 -->
      <g style="fill: #a9a9a9" transform="translate(81.9125 278.09148) scale(0.1 -0.1)">
       <defs>
        <path id="DejaVuSans-38" d="M 2034 2216 
Q 1584 2216 1326 1975 
Q 1069 1734 1069 1313 
Q 1069 891 1326 650 
Q 1584 409 2034 409 
Q 2484 409 2743 651 
Q 3003 894 3003 1313 
Q 3003 1734 2745 1975 
Q 2488 2216 2034 2216 
z
M 1403 2484 
Q 997 2584 770 2862 
Q 544 3141 544 3541 
Q 544 4100 942 4425 
Q 1341 4750 2034 4750 
Q 2731 4750 3128 4425 
Q 3525 4100 3525 3541 
Q 3525 3141 3298 2862 
Q 3072 2584 2669 2484 
Q 3125 2378 3379 2068 
Q 3634 1759 3634 1313 
Q 3634 634 3220 271 
Q 2806 -91 2034 -91 
Q 1263 -91 848 271 
Q 434 634 434 1313 
Q 434 1759 690 2068 
Q 947 2378 1403 2484 
z
M 1172 3481 
Q 1172 3119 1398 2916 
Q 1625 2713 2034 2713 
Q 2441 2713 2670 2916 
Q 2900 3119 2900 3481 
Q 2900 3844 2670 4047 
Q 2441 4250 2034 4250 
Q 1625 4250 1398 4047 
Q 1172 3844 1172 3481 
z
" transform="scale(0.015625)"/>
       </defs>
       <use xlink:href="#DejaVuSans-38"/>
       <use xlink:href="#DejaVuSans-30" x="63.623047"/>
       <use xlink:href="#DejaVuSans-30" x="127.246094"/>
      </g>
     </g>
    </g>
    <g id="ytick_3">
     <g id="line2d_23">
      <path d="M 108 240.742586 
L 777.6 240.742586 
" clip-path="url(#p49c496b8d1)" style="fill: none; stroke-dasharray: 5.12,1.28,0.8,1.28; stroke-dashoffset: 0; stroke: #b0b0b0; stroke-width: 0.8"/>
     </g>
     <g id="line2d_24">
      <g>
       <use xlink:href="#md0ce65b016" x="108" y="240.742586" style="fill: #a9a9a9; stroke: #a9a9a9; stroke-width: 0.8"/>
      </g>
     </g>
     <g id="text_12">
      <!-- 1600 -->
      <g style="fill: #a9a9a9" transform="translate(75.55 244.541805) scale(0.1 -0.1)">
       <defs>
        <path id="DejaVuSans-36" d="M 2113 2584 
Q 1688 2584 1439 2293 
Q 1191 2003 1191 1497 
Q 1191 994 1439 701 
Q 1688 409 2113 409 
Q 2538 409 2786 701 
Q 3034 994 3034 1497 
Q 3034 2003 2786 2293 
Q 2538 2584 2113 2584 
z
M 3366 4563 
L 3366 3988 
Q 3128 4100 2886 4159 
Q 2644 4219 2406 4219 
Q 1781 4219 1451 3797 
Q 1122 3375 1075 2522 
Q 1259 2794 1537 2939 
Q 1816 3084 2150 3084 
Q 2853 3084 3261 2657 
Q 3669 2231 3669 1497 
Q 3669 778 3244 343 
Q 2819 -91 2113 -91 
Q 1303 -91 875 529 
Q 447 1150 447 2328 
Q 447 3434 972 4092 
Q 1497 4750 2381 4750 
Q 2619 4750 2861 4703 
Q 3103 4656 3366 4563 
z
" transform="scale(0.015625)"/>
       </defs>
       <use xlink:href="#DejaVuSans-31"/>
       <use xlink:href="#DejaVuSans-36" x="63.623047"/>
       <use xlink:href="#DejaVuSans-30" x="127.246094"/>
       <use xlink:href="#DejaVuSans-30" x="190.869141"/>
      </g>
     </g>
    </g>
    <g id="ytick_4">
     <g id="line2d_25">
      <path d="M 108 207.192911 
L 777.6 207.192911 
" clip-path="url(#p49c496b8d1)" style="fill: none; stroke-dasharray: 5.12,1.28,0.8,1.28; stroke-dashoffset: 0; stroke: #b0b0b0; stroke-width: 0.8"/>
     </g>
     <g id="line2d_26">
      <g>
       <use xlink:href="#md0ce65b016" x="108" y="207.192911" style="fill: #a9a9a9; stroke: #a9a9a9; stroke-width: 0.8"/>
      </g>
     </g>
     <g id="text_13">
      <!-- 2400 -->
      <g style="fill: #a9a9a9" transform="translate(75.55 210.992129) scale(0.1 -0.1)">
       <use xlink:href="#DejaVuSans-32"/>
       <use xlink:href="#DejaVuSans-34" x="63.623047"/>
       <use xlink:href="#DejaVuSans-30" x="127.246094"/>
       <use xlink:href="#DejaVuSans-30" x="190.869141"/>
      </g>
     </g>
    </g>
    <g id="ytick_5">
     <g id="line2d_27">
      <path d="M 108 173.643235 
L 777.6 173.643235 
" clip-path="url(#p49c496b8d1)" style="fill: none; stroke-dasharray: 5.12,1.28,0.8,1.28; stroke-dashoffset: 0; stroke: #b0b0b0; stroke-width: 0.8"/>
     </g>
     <g id="line2d_28">
      <g>
       <use xlink:href="#md0ce65b016" x="108" y="173.643235" style="fill: #a9a9a9; stroke: #a9a9a9; stroke-width: 0.8"/>
      </g>
     </g>
     <g id="text_14">
      <!-- 3200 -->
      <g style="fill: #a9a9a9" transform="translate(75.55 177.442454) scale(0.1 -0.1)">
       <use xlink:href="#DejaVuSans-33"/>
       <use xlink:href="#DejaVuSans-32" x="63.623047"/>
       <use xlink:href="#DejaVuSans-30" x="127.246094"/>
       <use xlink:href="#DejaVuSans-30" x="190.869141"/>
      </g>
     </g>
    </g>
    <g id="ytick_6">
     <g id="line2d_29">
      <path d="M 108 140.09356 
L 777.6 140.09356 
" clip-path="url(#p49c496b8d1)" style="fill: none; stroke-dasharray: 5.12,1.28,0.8,1.28; stroke-dashoffset: 0; stroke: #b0b0b0; stroke-width: 0.8"/>
     </g>
     <g id="line2d_30">
      <g>
       <use xlink:href="#md0ce65b016" x="108" y="140.09356" style="fill: #a9a9a9; stroke: #a9a9a9; stroke-width: 0.8"/>
      </g>
     </g>
     <g id="text_15">
      <!-- 4000 -->
      <g style="fill: #a9a9a9" transform="translate(75.55 143.892778) scale(0.1 -0.1)">
       <use xlink:href="#DejaVuSans-34"/>
       <use xlink:href="#DejaVuSans-30" x="63.623047"/>
       <use xlink:href="#DejaVuSans-30" x="127.246094"/>
       <use xlink:href="#DejaVuSans-30" x="190.869141"/>
      </g>
     </g>
    </g>
    <g id="ytick_7">
     <g id="line2d_31">
      <path d="M 108 106.543884 
L 777.6 106.543884 
" clip-path="url(#p49c496b8d1)" style="fill: none; stroke-dasharray: 5.12,1.28,0.8,1.28; stroke-dashoffset: 0; stroke: #b0b0b0; stroke-width: 0.8"/>
     </g>
     <g id="line2d_32">
      <g>
       <use xlink:href="#md0ce65b016" x="108" y="106.543884" style="fill: #a9a9a9; stroke: #a9a9a9; stroke-width: 0.8"/>
      </g>
     </g>
     <g id="text_16">
      <!-- 4800 -->
      <g style="fill: #a9a9a9" transform="translate(75.55 110.343103) scale(0.1 -0.1)">
       <use xlink:href="#DejaVuSans-34"/>
       <use xlink:href="#DejaVuSans-38" x="63.623047"/>
       <use xlink:href="#DejaVuSans-30" x="127.246094"/>
       <use xlink:href="#DejaVuSans-30" x="190.869141"/>
      </g>
     </g>
    </g>
    <g id="ytick_8">
     <g id="line2d_33">
      <path d="M 108 72.994209 
L 777.6 72.994209 
" clip-path="url(#p49c496b8d1)" style="fill: none; stroke-dasharray: 5.12,1.28,0.8,1.28; stroke-dashoffset: 0; stroke: #b0b0b0; stroke-width: 0.8"/>
     </g>
     <g id="line2d_34">
      <g>
       <use xlink:href="#md0ce65b016" x="108" y="72.994209" style="fill: #a9a9a9; stroke: #a9a9a9; stroke-width: 0.8"/>
      </g>
     </g>
     <g id="text_17">
      <!-- 5600 -->
      <g style="fill: #a9a9a9" transform="translate(75.55 76.793427) scale(0.1 -0.1)">
       <use xlink:href="#DejaVuSans-35"/>
       <use xlink:href="#DejaVuSans-36" x="63.623047"/>
       <use xlink:href="#DejaVuSans-30" x="127.246094"/>
       <use xlink:href="#DejaVuSans-30" x="190.869141"/>
      </g>
     </g>
    </g>
   </g>
   <g id="line2d_35">
    <path d="M 138.436364 307.716126 
L 142.048988 307.422566 
L 142.651093 307.170944 
L 144.457405 306.961258 
L 148.07003 306.248328 
L 151.682654 305.954768 
L 152.284759 305.661208 
L 152.886863 305.49346 
L 153.488967 304.738592 
L 154.091071 304.319221 
L 154.693175 303.019171 
L 155.295279 302.935297 
L 155.897383 302.473989 
L 157.101592 301.88687 
L 159.510008 300.041638 
L 160.714216 299.538392 
L 161.31632 299.119021 
L 163.724737 298.070594 
L 164.326841 297.147978 
L 165.531049 296.309236 
L 166.133153 296.015676 
L 172.154195 295.176935 
L 172.756299 294.883375 
L 176.971028 294.547878 
L 178.77734 294.08657 
L 184.196277 293.37364 
L 184.798381 293.038143 
L 185.400486 292.954269 
L 186.00259 292.702646 
L 187.206798 292.492961 
L 187.808902 292.451023 
L 189.01311 292.199401 
L 189.615214 292.157464 
L 192.023631 291.570344 
L 193.829943 291.402596 
L 195.034152 291.276785 
L 195.636256 291.109036 
L 196.23836 291.067099 
L 198.044672 290.521917 
L 199.24888 290.438043 
L 200.453089 290.270295 
L 201.657297 290.018672 
L 202.259401 289.850924 
L 202.861505 289.054119 
L 204.667818 288.383125 
L 206.47413 287.921817 
L 207.076234 287.628258 
L 207.678338 287.586321 
L 210.688859 286.747579 
L 211.893067 286.663704 
L 212.495171 286.57983 
L 214.301484 286.034648 
L 216.7099 285.447529 
L 217.312004 285.195906 
L 217.914108 285.112032 
L 218.516213 284.818472 
L 224.537254 283.937793 
L 227.547774 283.099051 
L 228.149879 282.721618 
L 230.558295 282.092561 
L 232.966712 280.876385 
L 234.773024 280.457014 
L 235.375128 280.37314 
L 235.977232 280.079581 
L 237.181441 279.869895 
L 238.385649 279.324713 
L 241.396169 278.569845 
L 243.202482 278.108537 
L 243.804586 277.856915 
L 244.40669 277.731103 
L 245.008794 277.479481 
L 245.610898 277.395607 
L 246.213002 277.102047 
L 246.815107 276.934299 
L 248.019315 276.850424 
L 249.223523 276.431053 
L 250.427731 276.347179 
L 251.029835 276.05362 
L 252.234044 275.885871 
L 252.836148 275.676186 
L 254.040356 275.634249 
L 256.448773 275.340689 
L 257.652981 274.75357 
L 264.276126 271.943784 
L 264.87823 271.608288 
L 265.480335 270.979231 
L 266.684543 269.217873 
L 267.286647 269.050125 
L 267.888751 269.050125 
L 269.092959 268.169446 
L 269.695063 268.001697 
L 270.297168 267.708138 
L 270.899272 267.582327 
L 271.501376 267.037144 
L 272.10348 266.869396 
L 273.909792 265.988717 
L 275.114001 264.311233 
L 275.716105 263.933799 
L 276.318209 262.927309 
L 276.920313 262.298253 
L 277.522417 262.004693 
L 278.124521 261.836945 
L 280.532938 260.411083 
L 281.737146 259.44653 
L 282.33925 259.069096 
L 282.941354 258.188417 
L 283.543458 256.84643 
L 284.145562 255.965751 
L 284.747667 255.504443 
L 285.349771 255.252821 
L 287.758187 253.155966 
L 288.962395 252.191413 
L 289.5645 251.688168 
L 290.166604 250.891363 
L 291.370812 249.842936 
L 293.779228 248.291263 
L 294.381333 247.788018 
L 294.983437 247.662207 
L 295.585541 247.410584 
L 297.391853 246.404094 
L 299.198166 245.271792 
L 301.004478 243.510434 
L 301.606582 243.133 
L 302.208686 242.965252 
L 302.81079 242.671692 
L 304.014999 241.874888 
L 304.617103 241.539391 
L 305.219207 241.455517 
L 310.03604 238.561857 
L 311.842352 237.597304 
L 312.444456 237.052122 
L 314.852873 236.297254 
L 315.454977 235.877883 
L 316.057081 235.752072 
L 317.261289 235.332701 
L 319.067602 234.61977 
L 320.873914 233.948777 
L 322.078122 233.739091 
L 323.282331 232.690664 
L 325.088643 231.851922 
L 326.292851 231.138992 
L 327.49706 230.803495 
L 328.099164 230.426061 
L 328.701268 230.258313 
L 330.50758 229.126011 
L 333.518101 228.41308 
L 335.324413 227.364653 
L 335.926517 227.280779 
L 336.528622 227.071093 
L 337.73283 226.819471 
L 339.539142 225.477484 
L 341.345455 225.058113 
L 341.947559 224.848427 
L 342.549663 224.387119 
L 346.162288 223.212881 
L 346.764392 223.170944 
L 347.366496 223.003195 
L 348.570704 222.49995 
L 352.785433 221.032152 
L 353.989641 220.864403 
L 354.591745 220.696655 
L 355.193849 220.403095 
L 355.795954 220.277284 
L 357.602266 219.438542 
L 359.408578 218.557863 
L 360.010682 218.138492 
L 360.612787 217.970744 
L 362.419099 217.006191 
L 363.623307 216.712631 
L 364.827516 216.083575 
L 366.031724 215.748078 
L 366.633828 215.664204 
L 367.838036 214.951273 
L 368.44014 214.825462 
L 369.644349 214.322217 
L 370.246453 214.196405 
L 370.848557 213.860909 
L 373.256973 213.483475 
L 374.461182 212.896355 
L 375.063286 212.39311 
L 375.66539 211.344683 
L 377.471702 211.009186 
L 379.880119 209.751073 
L 380.482223 209.625262 
L 384.696952 207.612282 
L 385.90116 207.276785 
L 387.105368 207.025162 
L 388.309576 206.438043 
L 388.911681 206.18642 
L 389.513785 206.102546 
L 391.922201 205.054119 
L 393.728514 203.921817 
L 394.330618 203.837943 
L 394.932722 203.628258 
L 395.534826 203.586321 
L 397.943243 202.915327 
L 398.545347 202.87339 
L 399.147451 202.412082 
L 400.351659 201.992711 
L 402.157971 201.405592 
L 402.760076 201.028158 
L 403.36218 200.860409 
L 403.964284 200.441038 
L 404.566388 200.189416 
L 405.770596 199.560359 
L 408.179013 198.847429 
L 408.781117 198.553869 
L 410.587429 197.169945 
L 411.189533 197.044134 
L 412.393742 196.121518 
L 412.995846 195.995706 
L 413.59795 195.07309 
L 414.200054 194.821468 
L 414.802158 194.36016 
L 415.404262 194.276286 
L 416.60847 193.563355 
L 417.210575 193.437544 
L 417.812679 193.185921 
L 418.414783 192.724613 
L 419.016887 192.514928 
L 420.823199 191.298752 
L 423.231616 190.082576 
L 423.83372 189.998702 
L 425.037928 189.45352 
L 425.640032 189.118023 
L 426.242136 188.111533 
L 426.844241 187.56635 
L 427.446345 187.230854 
L 428.048449 187.105042 
L 429.252657 186.350175 
L 429.854761 186.224363 
L 431.05897 185.637244 
L 432.865282 184.882376 
L 434.06949 184.043635 
L 435.273698 182.785522 
L 438.284219 180.604793 
L 439.488427 179.64024 
L 440.090531 179.388617 
L 440.692636 178.717624 
L 441.29474 178.256316 
L 442.498948 177.836945 
L 443.703156 177.04014 
L 444.30526 176.74658 
L 444.907364 176.578832 
L 445.509469 176.159461 
L 446.111573 176.075587 
L 447.917885 175.111033 
L 449.122093 174.398103 
L 455.143135 172.259311 
L 455.745239 171.714129 
L 457.551551 171.043135 
L 458.755759 170.665701 
L 459.357864 170.204393 
L 461.76628 168.946281 
L 462.368384 168.610784 
L 463.572592 166.262307 
L 464.776801 164.836445 
L 465.981009 164.123515 
L 467.787321 163.410584 
L 468.389425 163.32671 
L 468.99153 162.991213 
L 470.797842 162.446031 
L 473.206258 161.355667 
L 473.808363 160.978233 
L 475.012571 160.558862 
L 478.625196 158.462007 
L 479.2273 157.832951 
L 480.431508 157.203894 
L 484.044133 155.316725 
L 484.646237 155.065102 
L 485.248341 154.687668 
L 485.850445 154.561857 
L 486.452549 154.100549 
L 489.46307 153.135996 
L 490.065174 152.968248 
L 490.667278 152.674688 
L 491.269382 152.255317 
L 492.473591 151.91982 
L 493.677799 151.458512 
L 494.279903 150.997204 
L 495.484111 150.61977 
L 496.086215 150.326211 
L 496.688319 150.158462 
L 497.892528 149.31972 
L 499.096736 148.816475 
L 500.300944 147.893859 
L 501.505152 147.474488 
L 502.107257 146.971243 
L 502.709361 146.887369 
L 503.913569 146.00669 
L 505.117777 145.419571 
L 505.719881 145.167948 
L 506.321985 144.580829 
L 509.93461 143.280779 
L 511.740923 142.483974 
L 513.547235 141.938792 
L 514.751443 141.771043 
L 515.353547 141.519421 
L 515.955651 141.435547 
L 517.15986 140.932302 
L 517.761964 140.890364 
L 520.17038 140.009685 
L 521.976693 138.79351 
L 522.578797 138.541887 
L 523.783005 137.912831 
L 524.385109 137.703145 
L 527.997734 135.732102 
L 528.599838 135.606291 
L 530.406151 134.5998 
L 532.212463 134.012681 
L 532.814567 133.761058 
L 534.018775 133.467499 
L 537.029296 132.502946 
L 538.835608 132.209386 
L 541.244025 131.454518 
L 541.846129 131.202896 
L 542.448233 131.119021 
L 543.050337 130.825462 
L 544.254545 130.573839 
L 545.458754 130.154468 
L 546.060858 129.944783 
L 547.265066 129.818972 
L 548.469274 129.525412 
L 550.275587 129.231852 
L 550.877691 129.022167 
L 552.081899 128.896355 
L 555.09242 128.141488 
L 556.296628 127.847928 
L 556.898732 127.512431 
L 559.909253 126.757564 
L 560.511357 126.631752 
L 561.715565 126.212381 
L 563.521878 125.583325 
L 564.123982 125.499451 
L 565.930294 124.870394 
L 566.532398 124.870394 
L 567.736606 124.451023 
L 568.338711 123.863904 
L 568.940815 123.570344 
L 570.145023 123.192911 
L 572.553439 122.270295 
L 573.155544 122.144483 
L 573.757648 121.767049 
L 574.359752 121.641238 
L 574.961856 121.305741 
L 577.972377 120.425062 
L 578.574481 120.047629 
L 579.176585 119.921817 
L 579.778689 119.418572 
L 581.585001 119.083075 
L 582.78921 118.412082 
L 583.391314 117.741088 
L 584.595522 117.489466 
L 588.810251 116.524913 
L 589.412355 116.357164 
L 590.616563 116.315227 
L 591.218667 116.021667 
L 593.627084 115.602297 
L 594.229188 115.350674 
L 596.0355 115.099051 
L 598.443917 114.344184 
L 600.250229 113.924813 
L 602.056542 113.463505 
L 603.862854 112.918323 
L 606.873375 112.037644 
L 608.077583 111.492461 
L 609.281791 111.07309 
L 609.883895 110.611782 
L 611.088104 110.276286 
L 611.690208 110.024663 
L 612.894416 109.689166 
L 615.302832 108.598802 
L 617.109145 108.472991 
L 619.517561 107.801997 
L 620.119665 107.424563 
L 621.323874 107.089066 
L 623.130186 106.16645 
L 623.73229 106.040639 
L 624.334394 105.747079 
L 624.936499 105.705142 
L 631.559644 103.482476 
L 633.96806 102.895357 
L 634.570165 102.727609 
L 635.774373 102.182426 
L 636.376477 102.098552 
L 637.580685 101.763055 
L 638.182789 101.301747 
L 638.784893 101.008188 
L 639.386998 100.295257 
L 639.989102 99.875886 
L 641.19331 99.498452 
L 641.795414 99.037144 
L 646.612247 97.066101 
L 647.214351 96.898352 
L 647.816455 96.520919 
L 650.224872 95.807988 
L 651.42908 95.220869 
L 652.633288 94.507938 
L 653.235393 94.382127 
L 653.837497 93.920819 
L 655.643809 92.956266 
L 656.848017 92.369146 
L 657.450121 92.159461 
L 659.256434 91.152971 
L 659.858538 90.943285 
L 661.062746 90.230354 
L 661.66485 90.020669 
L 662.266954 89.601298 
L 663.471163 89.181927 
L 664.073267 89.056116 
L 666.481683 87.965751 
L 669.492204 86.917324 
L 670.094308 86.875387 
L 670.696412 86.707639 
L 671.298516 86.330205 
L 671.90062 86.246331 
L 672.502725 86.036645 
L 674.309037 85.701148 
L 678.523766 83.562356 
L 679.12587 83.478482 
L 680.932182 82.513929 
L 682.738495 81.842936 
L 684.544807 81.046131 
L 686.953224 80.081578 
L 687.555328 79.913829 
L 688.157432 79.536395 
L 689.36164 79.368647 
L 689.963744 78.991213 
L 690.565848 78.949276 
L 691.770057 78.571842 
L 692.974265 77.984723 
L 693.576369 77.900849 
L 694.178473 77.649226 
L 694.780577 77.523415 
L 696.58689 76.72661 
L 697.188994 76.600799 
L 697.791098 76.349176 
L 700.801619 75.636246 
L 702.607931 74.965252 
L 705.016347 73.581328 
L 706.220556 73.12002 
L 706.82266 72.742586 
L 708.026868 72.490964 
L 708.628972 72.155467 
L 709.231076 72.029656 
L 710.435285 71.358662 
L 714.047909 69.681178 
L 715.854222 69.094059 
L 717.05843 68.674688 
L 717.660534 68.465002 
L 718.864742 67.877883 
L 720.068951 67.500449 
L 720.671055 67.374638 
L 721.875263 66.829456 
L 722.477367 66.61977 
L 723.079471 66.284274 
L 723.681575 66.200399 
L 724.28368 65.990714 
L 725.487888 65.31972 
L 727.896304 64.229356 
L 729.100513 63.809985 
L 730.304721 63.180929 
L 730.906825 63.097054 
L 733.917346 61.797004 
L 734.51945 61.377634 
L 736.927866 60.580829 
L 737.52997 60.580829 
L 738.734179 60.035647 
L 739.336283 59.574338 
L 739.938387 58.903345 
L 740.540491 58.4001 
L 741.142595 58.10654 
L 741.744699 57.938792 
L 742.346803 57.561358 
L 742.948907 57.435547 
L 743.551012 57.141987 
L 744.153116 57.058113 
L 744.75522 56.638742 
L 745.357324 56.512931 
L 745.959428 56.219371 
L 746.561532 55.8 
L 747.163636 55.8 
L 747.163636 55.8 
" clip-path="url(#p49c496b8d1)" style="fill: none; stroke: #1f77b4; stroke-width: 1.5; stroke-linecap: square"/>
   </g>
   <g id="line2d_36">
    <path d="M 139.038468 307.8 
L 140.84478 307.716126 
L 142.651093 307.674189 
L 146.263717 307.590315 
L 149.274238 307.464503 
L 151.682654 307.464503 
L 152.284759 307.296755 
L 154.693175 307.212881 
L 156.499487 307.003195 
L 158.3058 306.835447 
L 161.918425 306.667698 
L 162.520529 306.667698 
L 163.122633 306.541887 
L 165.531049 306.458013 
L 166.735258 306.374139 
L 171.552091 306.290265 
L 174.562611 306.164453 
L 181.787861 306.080579 
L 184.798381 305.954768 
L 188.411006 305.870894 
L 190.819423 305.787019 
L 196.23836 305.703145 
L 198.044672 305.661208 
L 199.850985 305.619271 
L 201.657297 305.409586 
L 205.269922 305.367649 
L 206.47413 305.283774 
L 210.688859 305.1999 
L 217.312004 304.822466 
L 221.526733 304.738592 
L 222.730941 304.654718 
L 224.537254 304.570844 
L 228.149879 304.403095 
L 230.558295 304.361158 
L 232.364607 304.19341 
L 240.191961 303.732102 
L 243.202482 303.648228 
L 248.621419 303.354668 
L 250.427731 303.270794 
L 256.448773 302.935297 
L 263.071918 302.851423 
L 265.480335 302.5998 
L 266.684543 302.515926 
L 274.511896 301.88687 
L 278.124521 301.425562 
L 280.532938 301.341687 
L 285.349771 300.712631 
L 288.962395 300.628757 
L 290.768708 300.461008 
L 291.972916 300.419071 
L 293.177124 300.29326 
L 294.983437 300.209386 
L 296.187645 300.041638 
L 299.198166 299.706141 
L 301.606582 299.622267 
L 302.81079 299.538392 
L 305.219207 299.454518 
L 306.423415 299.370644 
L 309.433936 299.077084 
L 310.03604 298.909336 
L 313.648665 298.741588 
L 316.659185 298.657713 
L 324.486539 298.196405 
L 326.292851 298.112531 
L 334.120205 297.651223 
L 338.334934 297.567349 
L 338.937038 297.441538 
L 343.753871 297.357664 
L 347.9686 297.147978 
L 354.591745 297.064104 
L 358.806474 296.854418 
L 363.623307 296.770544 
L 368.44014 296.518922 
L 372.654869 296.435047 
L 384.094848 295.722117 
L 388.911681 295.638243 
L 404.566388 294.631752 
L 408.179013 294.547878 
L 409.985325 294.505941 
L 411.791637 294.464004 
L 413.59795 294.296256 
L 418.414783 294.212381 
L 419.618991 294.002696 
L 420.823199 293.918822 
L 423.83372 293.79301 
L 425.037928 293.709136 
L 426.242136 293.625262 
L 431.661074 293.541388 
L 432.865282 293.415577 
L 435.273698 293.37364 
L 435.875803 293.247828 
L 437.080011 293.163954 
L 437.682115 293.038143 
L 439.488427 292.954269 
L 449.122093 292.367149 
L 451.53051 292.283275 
L 454.54103 292.157464 
L 462.970488 292.07359 
L 467.185217 291.863904 
L 472.00205 291.78003 
L 474.410467 291.696156 
L 476.818883 291.654219 
L 478.023091 291.528407 
L 480.431508 291.444533 
L 486.452549 291.109036 
L 490.065174 291.067099 
L 491.871486 290.899351 
L 493.677799 290.857414 
L 497.892528 290.77354 
L 500.300944 290.689666 
L 507.526194 290.605791 
L 510.536714 290.47998 
L 514.149339 290.396106 
L 515.955651 290.18642 
L 519.568276 290.144483 
L 521.374589 289.976735 
L 523.783005 289.892861 
L 531.008255 289.808987 
L 534.018775 289.683175 
L 544.254545 289.641238 
L 545.458754 289.557364 
L 547.265066 289.515427 
L 555.09242 289.431553 
L 556.296628 289.347678 
L 562.919773 289.263804 
L 565.32819 289.17993 
L 572.553439 289.137993 
L 573.757648 289.054119 
L 582.78921 289.012182 
L 584.595522 288.844433 
L 599.648125 288.760559 
L 601.454438 288.718622 
L 617.711249 288.634748 
L 620.119665 288.550874 
L 630.355436 288.467 
L 631.559644 288.383125 
L 634.570165 288.299251 
L 636.376477 288.131503 
L 639.386998 288.047629 
L 641.795414 287.963754 
L 645.408039 287.87988 
L 647.214351 287.837943 
L 649.622768 287.754069 
L 651.42908 287.712132 
L 654.439601 287.628258 
L 655.643809 287.544383 
L 659.256434 287.460509 
L 662.266954 287.334698 
L 663.471163 287.292761 
L 664.675371 287.208887 
L 666.481683 287.16695 
L 668.8901 287.083075 
L 671.298516 286.999201 
L 679.12587 286.915327 
L 681.534286 286.831453 
L 686.35112 286.747579 
L 690.565848 286.537893 
L 695.984786 286.454019 
L 697.188994 286.370145 
L 708.026868 286.286271 
L 709.83318 286.244333 
L 712.843701 286.202396 
L 715.252118 285.950774 
L 717.05843 285.908837 
L 720.671055 285.824963 
L 727.2942 285.447529 
L 729.702617 285.363655 
L 732.111033 285.27978 
L 735.723658 285.195906 
L 736.927866 285.112032 
L 739.336283 285.028158 
L 741.744699 284.776535 
L 744.153116 284.692661 
L 747.163636 284.608787 
L 747.163636 284.608787 
" clip-path="url(#p49c496b8d1)" style="fill: none; stroke: #ff7f0e; stroke-width: 1.5; stroke-linecap: square"/>
   </g>
   <g id="patch_3">
    <path d="M 108 320.4 
L 108 43.2 
" style="fill: none; stroke: #a9a9a9; stroke-width: 0.8; stroke-linejoin: miter; stroke-linecap: square"/>
   </g>
   <g id="patch_4">
    <path d="M 777.6 320.4 
L 777.6 43.2 
" style="fill: none"/>
   </g>
   <g id="patch_5">
    <path d="M 108 320.4 
L 777.6 320.4 
" style="fill: none; stroke: #a9a9a9; stroke-width: 0.8; stroke-linejoin: miter; stroke-linecap: square"/>
   </g>
   <g id="patch_6">
    <path d="M 108 43.2 
L 777.6 43.2 
" style="fill: none"/>
   </g>
   <g id="text_18">
    <!-- get_subscribe history -->
    <g style="fill: #a9a9a9" transform="translate(378.6075 37.2) scale(0.12 -0.12)">
     <defs>
      <path id="DejaVuSans-67" d="M 2906 1791 
Q 2906 2416 2648 2759 
Q 2391 3103 1925 3103 
Q 1463 3103 1205 2759 
Q 947 2416 947 1791 
Q 947 1169 1205 825 
Q 1463 481 1925 481 
Q 2391 481 2648 825 
Q 2906 1169 2906 1791 
z
M 3481 434 
Q 3481 -459 3084 -895 
Q 2688 -1331 1869 -1331 
Q 1566 -1331 1297 -1286 
Q 1028 -1241 775 -1147 
L 775 -588 
Q 1028 -725 1275 -790 
Q 1522 -856 1778 -856 
Q 2344 -856 2625 -561 
Q 2906 -266 2906 331 
L 2906 616 
Q 2728 306 2450 153 
Q 2172 0 1784 0 
Q 1141 0 747 490 
Q 353 981 353 1791 
Q 353 2603 747 3093 
Q 1141 3584 1784 3584 
Q 2172 3584 2450 3431 
Q 2728 3278 2906 2969 
L 2906 3500 
L 3481 3500 
L 3481 434 
z
" transform="scale(0.015625)"/>
      <path id="DejaVuSans-65" d="M 3597 1894 
L 3597 1613 
L 953 1613 
Q 991 1019 1311 708 
Q 1631 397 2203 397 
Q 2534 397 2845 478 
Q 3156 559 3463 722 
L 3463 178 
Q 3153 47 2828 -22 
Q 2503 -91 2169 -91 
Q 1331 -91 842 396 
Q 353 884 353 1716 
Q 353 2575 817 3079 
Q 1281 3584 2069 3584 
Q 2775 3584 3186 3129 
Q 3597 2675 3597 1894 
z
M 3022 2063 
Q 3016 2534 2758 2815 
Q 2500 3097 2075 3097 
Q 1594 3097 1305 2825 
Q 1016 2553 972 2059 
L 3022 2063 
z
" transform="scale(0.015625)"/>
      <path id="DejaVuSans-74" d="M 1172 4494 
L 1172 3500 
L 2356 3500 
L 2356 3053 
L 1172 3053 
L 1172 1153 
Q 1172 725 1289 603 
Q 1406 481 1766 481 
L 2356 481 
L 2356 0 
L 1766 0 
Q 1100 0 847 248 
Q 594 497 594 1153 
L 594 3053 
L 172 3053 
L 172 3500 
L 594 3500 
L 594 4494 
L 1172 4494 
z
" transform="scale(0.015625)"/>
      <path id="DejaVuSans-5f" d="M 3263 -1063 
L 3263 -1509 
L -63 -1509 
L -63 -1063 
L 3263 -1063 
z
" transform="scale(0.015625)"/>
      <path id="DejaVuSans-73" d="M 2834 3397 
L 2834 2853 
Q 2591 2978 2328 3040 
Q 2066 3103 1784 3103 
Q 1356 3103 1142 2972 
Q 928 2841 928 2578 
Q 928 2378 1081 2264 
Q 1234 2150 1697 2047 
L 1894 2003 
Q 2506 1872 2764 1633 
Q 3022 1394 3022 966 
Q 3022 478 2636 193 
Q 2250 -91 1575 -91 
Q 1294 -91 989 -36 
Q 684 19 347 128 
L 347 722 
Q 666 556 975 473 
Q 1284 391 1588 391 
Q 1994 391 2212 530 
Q 2431 669 2431 922 
Q 2431 1156 2273 1281 
Q 2116 1406 1581 1522 
L 1381 1569 
Q 847 1681 609 1914 
Q 372 2147 372 2553 
Q 372 3047 722 3315 
Q 1072 3584 1716 3584 
Q 2034 3584 2315 3537 
Q 2597 3491 2834 3397 
z
" transform="scale(0.015625)"/>
      <path id="DejaVuSans-75" d="M 544 1381 
L 544 3500 
L 1119 3500 
L 1119 1403 
Q 1119 906 1312 657 
Q 1506 409 1894 409 
Q 2359 409 2629 706 
Q 2900 1003 2900 1516 
L 2900 3500 
L 3475 3500 
L 3475 0 
L 2900 0 
L 2900 538 
Q 2691 219 2414 64 
Q 2138 -91 1772 -91 
Q 1169 -91 856 284 
Q 544 659 544 1381 
z
M 1991 3584 
L 1991 3584 
z
" transform="scale(0.015625)"/>
      <path id="DejaVuSans-62" d="M 3116 1747 
Q 3116 2381 2855 2742 
Q 2594 3103 2138 3103 
Q 1681 3103 1420 2742 
Q 1159 2381 1159 1747 
Q 1159 1113 1420 752 
Q 1681 391 2138 391 
Q 2594 391 2855 752 
Q 3116 1113 3116 1747 
z
M 1159 2969 
Q 1341 3281 1617 3432 
Q 1894 3584 2278 3584 
Q 2916 3584 3314 3078 
Q 3713 2572 3713 1747 
Q 3713 922 3314 415 
Q 2916 -91 2278 -91 
Q 1894 -91 1617 61 
Q 1341 213 1159 525 
L 1159 0 
L 581 0 
L 581 4863 
L 1159 4863 
L 1159 2969 
z
" transform="scale(0.015625)"/>
      <path id="DejaVuSans-63" d="M 3122 3366 
L 3122 2828 
Q 2878 2963 2633 3030 
Q 2388 3097 2138 3097 
Q 1578 3097 1268 2742 
Q 959 2388 959 1747 
Q 959 1106 1268 751 
Q 1578 397 2138 397 
Q 2388 397 2633 464 
Q 2878 531 3122 666 
L 3122 134 
Q 2881 22 2623 -34 
Q 2366 -91 2075 -91 
Q 1284 -91 818 406 
Q 353 903 353 1747 
Q 353 2603 823 3093 
Q 1294 3584 2113 3584 
Q 2378 3584 2631 3529 
Q 2884 3475 3122 3366 
z
" transform="scale(0.015625)"/>
      <path id="DejaVuSans-72" d="M 2631 2963 
Q 2534 3019 2420 3045 
Q 2306 3072 2169 3072 
Q 1681 3072 1420 2755 
Q 1159 2438 1159 1844 
L 1159 0 
L 581 0 
L 581 3500 
L 1159 3500 
L 1159 2956 
Q 1341 3275 1631 3429 
Q 1922 3584 2338 3584 
Q 2397 3584 2469 3576 
Q 2541 3569 2628 3553 
L 2631 2963 
z
" transform="scale(0.015625)"/>
      <path id="DejaVuSans-69" d="M 603 3500 
L 1178 3500 
L 1178 0 
L 603 0 
L 603 3500 
z
M 603 4863 
L 1178 4863 
L 1178 4134 
L 603 4134 
L 603 4863 
z
" transform="scale(0.015625)"/>
      <path id="DejaVuSans-20" transform="scale(0.015625)"/>
      <path id="DejaVuSans-68" d="M 3513 2113 
L 3513 0 
L 2938 0 
L 2938 2094 
Q 2938 2591 2744 2837 
Q 2550 3084 2163 3084 
Q 1697 3084 1428 2787 
Q 1159 2491 1159 1978 
L 1159 0 
L 581 0 
L 581 4863 
L 1159 4863 
L 1159 2956 
Q 1366 3272 1645 3428 
Q 1925 3584 2291 3584 
Q 2894 3584 3203 3211 
Q 3513 2838 3513 2113 
z
" transform="scale(0.015625)"/>
      <path id="DejaVuSans-6f" d="M 1959 3097 
Q 1497 3097 1228 2736 
Q 959 2375 959 1747 
Q 959 1119 1226 758 
Q 1494 397 1959 397 
Q 2419 397 2687 759 
Q 2956 1122 2956 1747 
Q 2956 2369 2687 2733 
Q 2419 3097 1959 3097 
z
M 1959 3584 
Q 2709 3584 3137 3096 
Q 3566 2609 3566 1747 
Q 3566 888 3137 398 
Q 2709 -91 1959 -91 
Q 1206 -91 779 398 
Q 353 888 353 1747 
Q 353 2609 779 3096 
Q 1206 3584 1959 3584 
z
" transform="scale(0.015625)"/>
      <path id="DejaVuSans-79" d="M 2059 -325 
Q 1816 -950 1584 -1140 
Q 1353 -1331 966 -1331 
L 506 -1331 
L 506 -850 
L 844 -850 
Q 1081 -850 1212 -737 
Q 1344 -625 1503 -206 
L 1606 56 
L 191 3500 
L 800 3500 
L 1894 763 
L 2988 3500 
L 3597 3500 
L 2059 -325 
z
" transform="scale(0.015625)"/>
     </defs>
     <use xlink:href="#DejaVuSans-67"/>
     <use xlink:href="#DejaVuSans-65" x="63.476562"/>
     <use xlink:href="#DejaVuSans-74" x="125"/>
     <use xlink:href="#DejaVuSans-5f" x="164.208984"/>
     <use xlink:href="#DejaVuSans-73" x="214.208984"/>
     <use xlink:href="#DejaVuSans-75" x="266.308594"/>
     <use xlink:href="#DejaVuSans-62" x="329.6875"/>
     <use xlink:href="#DejaVuSans-73" x="393.164062"/>
     <use xlink:href="#DejaVuSans-63" x="445.263672"/>
     <use xlink:href="#DejaVuSans-72" x="500.244141"/>
     <use xlink:href="#DejaVuSans-69" x="541.357422"/>
     <use xlink:href="#DejaVuSans-62" x="569.140625"/>
     <use xlink:href="#DejaVuSans-65" x="632.617188"/>
     <use xlink:href="#DejaVuSans-20" x="694.140625"/>
     <use xlink:href="#DejaVuSans-68" x="725.927734"/>
     <use xlink:href="#DejaVuSans-69" x="789.306641"/>
     <use xlink:href="#DejaVuSans-73" x="817.089844"/>
     <use xlink:href="#DejaVuSans-74" x="869.189453"/>
     <use xlink:href="#DejaVuSans-6f" x="908.398438"/>
     <use xlink:href="#DejaVuSans-72" x="969.580078"/>
     <use xlink:href="#DejaVuSans-79" x="1010.693359"/>
    </g>
   </g>
   <g id="legend_1">
    <g id="line2d_37">
     <path d="M 815.08 328.498438 
L 825.08 328.498438 
L 835.08 328.498438 
" style="fill: none; stroke: #1f77b4; stroke-width: 1.5; stroke-linecap: square"/>
    </g>
    <g id="text_19">
     <!-- star -->
     <g style="fill: #a9a9a9" transform="translate(843.08 331.998438) scale(0.1 -0.1)">
      <defs>
       <path id="DejaVuSans-61" d="M 2194 1759 
Q 1497 1759 1228 1600 
Q 959 1441 959 1056 
Q 959 750 1161 570 
Q 1363 391 1709 391 
Q 2188 391 2477 730 
Q 2766 1069 2766 1631 
L 2766 1759 
L 2194 1759 
z
M 3341 1997 
L 3341 0 
L 2766 0 
L 2766 531 
Q 2569 213 2275 61 
Q 1981 -91 1556 -91 
Q 1019 -91 701 211 
Q 384 513 384 1019 
Q 384 1609 779 1909 
Q 1175 2209 1959 2209 
L 2766 2209 
L 2766 2266 
Q 2766 2663 2505 2880 
Q 2244 3097 1772 3097 
Q 1472 3097 1187 3025 
Q 903 2953 641 2809 
L 641 3341 
Q 956 3463 1253 3523 
Q 1550 3584 1831 3584 
Q 2591 3584 2966 3190 
Q 3341 2797 3341 1997 
z
" transform="scale(0.015625)"/>
      </defs>
      <use xlink:href="#DejaVuSans-73"/>
      <use xlink:href="#DejaVuSans-74" x="52.099609"/>
      <use xlink:href="#DejaVuSans-61" x="91.308594"/>
      <use xlink:href="#DejaVuSans-72" x="152.587891"/>
     </g>
    </g>
    <g id="line2d_38">
     <path d="M 815.08 343.176562 
L 825.08 343.176562 
L 835.08 343.176562 
" style="fill: none; stroke: #ff7f0e; stroke-width: 1.5; stroke-linecap: square"/>
    </g>
    <g id="text_20">
     <!-- fork -->
     <g style="fill: #a9a9a9" transform="translate(843.08 346.676562) scale(0.1 -0.1)">
      <defs>
       <path id="DejaVuSans-66" d="M 2375 4863 
L 2375 4384 
L 1825 4384 
Q 1516 4384 1395 4259 
Q 1275 4134 1275 3809 
L 1275 3500 
L 2222 3500 
L 2222 3053 
L 1275 3053 
L 1275 0 
L 697 0 
L 697 3053 
L 147 3053 
L 147 3500 
L 697 3500 
L 697 3744 
Q 697 4328 969 4595 
Q 1241 4863 1831 4863 
L 2375 4863 
z
" transform="scale(0.015625)"/>
       <path id="DejaVuSans-6b" d="M 581 4863 
L 1159 4863 
L 1159 1991 
L 2875 3500 
L 3609 3500 
L 1753 1863 
L 3688 0 
L 2938 0 
L 1159 1709 
L 1159 0 
L 581 0 
L 581 4863 
z
" transform="scale(0.015625)"/>
      </defs>
      <use xlink:href="#DejaVuSans-66"/>
      <use xlink:href="#DejaVuSans-6f" x="35.205078"/>
      <use xlink:href="#DejaVuSans-72" x="96.386719"/>
      <use xlink:href="#DejaVuSans-6b" x="137.5"/>
     </g>
    </g>
   </g>
  </g>
 </g>
 <defs>
  <clipPath id="p49c496b8d1">
   <rect x="108" y="43.2" width="669.6" height="277.2"/>
  </clipPath>
 </defs>
</svg>
